<mxfile host="app.diagrams.net" modified="2024-07-03T13:32:33.601Z" agent="Mozilla/5.0 (Windows NT 10.0; Win64; x64) AppleWebKit/537.36 (KHTML, like Gecko) Chrome/126.0.0.0 Safari/537.36" etag="wejIzc-kKyQxCvHgp0NA" version="24.6.4" type="device">
  <diagram name="Page-1" id="EY2tZo2UxjQK9EvT4BrF">
    <mxGraphModel dx="3020" dy="1976" grid="0" gridSize="10" guides="1" tooltips="1" connect="1" arrows="1" fold="1" page="0" pageScale="1" pageWidth="850" pageHeight="1100" math="0" shadow="0">
      <root>
        <mxCell id="0" />
        <mxCell id="1" parent="0" />
        <mxCell id="YxDH78quZ-EtWejgUxgi-2" value="Admin" style="shape=table;startSize=30;container=1;collapsible=1;childLayout=tableLayout;fixedRows=1;rowLines=0;fontStyle=1;align=center;resizeLast=1;html=1;fontSize=17;" parent="1" vertex="1">
          <mxGeometry x="-693" y="-354" width="247" height="90" as="geometry" />
        </mxCell>
        <mxCell id="YxDH78quZ-EtWejgUxgi-3" value="" style="shape=tableRow;horizontal=0;startSize=0;swimlaneHead=0;swimlaneBody=0;fillColor=none;collapsible=0;dropTarget=0;points=[[0,0.5],[1,0.5]];portConstraint=eastwest;top=0;left=0;right=0;bottom=1;fontSize=17;" parent="YxDH78quZ-EtWejgUxgi-2" vertex="1">
          <mxGeometry y="30" width="247" height="30" as="geometry" />
        </mxCell>
        <mxCell id="YxDH78quZ-EtWejgUxgi-4" value="PK" style="shape=partialRectangle;connectable=0;fillColor=none;top=0;left=0;bottom=0;right=0;fontStyle=1;overflow=hidden;whiteSpace=wrap;html=1;fontSize=17;" parent="YxDH78quZ-EtWejgUxgi-3" vertex="1">
          <mxGeometry width="30" height="30" as="geometry">
            <mxRectangle width="30" height="30" as="alternateBounds" />
          </mxGeometry>
        </mxCell>
        <mxCell id="YxDH78quZ-EtWejgUxgi-5" value="ID int Not Null" style="shape=partialRectangle;connectable=0;fillColor=none;top=0;left=0;bottom=0;right=0;align=left;spacingLeft=6;fontStyle=5;overflow=hidden;whiteSpace=wrap;html=1;fontSize=17;" parent="YxDH78quZ-EtWejgUxgi-3" vertex="1">
          <mxGeometry x="30" width="217" height="30" as="geometry">
            <mxRectangle width="217" height="30" as="alternateBounds" />
          </mxGeometry>
        </mxCell>
        <mxCell id="YxDH78quZ-EtWejgUxgi-12" value="" style="shape=tableRow;horizontal=0;startSize=0;swimlaneHead=0;swimlaneBody=0;fillColor=none;collapsible=0;dropTarget=0;points=[[0,0.5],[1,0.5]];portConstraint=eastwest;top=0;left=0;right=0;bottom=0;fontSize=17;" parent="YxDH78quZ-EtWejgUxgi-2" vertex="1">
          <mxGeometry y="60" width="247" height="30" as="geometry" />
        </mxCell>
        <mxCell id="YxDH78quZ-EtWejgUxgi-13" value="FK" style="shape=partialRectangle;connectable=0;fillColor=none;top=0;left=0;bottom=0;right=0;editable=1;overflow=hidden;whiteSpace=wrap;html=1;fontSize=17;" parent="YxDH78quZ-EtWejgUxgi-12" vertex="1">
          <mxGeometry width="30" height="30" as="geometry">
            <mxRectangle width="30" height="30" as="alternateBounds" />
          </mxGeometry>
        </mxCell>
        <mxCell id="YxDH78quZ-EtWejgUxgi-14" value="User_ID" style="shape=partialRectangle;connectable=0;fillColor=none;top=0;left=0;bottom=0;right=0;align=left;spacingLeft=6;overflow=hidden;whiteSpace=wrap;html=1;fontSize=17;" parent="YxDH78quZ-EtWejgUxgi-12" vertex="1">
          <mxGeometry x="30" width="217" height="30" as="geometry">
            <mxRectangle width="217" height="30" as="alternateBounds" />
          </mxGeometry>
        </mxCell>
        <mxCell id="YxDH78quZ-EtWejgUxgi-31" value="User" style="shape=table;startSize=30;container=1;collapsible=1;childLayout=tableLayout;fixedRows=1;rowLines=0;fontStyle=1;align=center;resizeLast=1;html=1;fontSize=17;" parent="1" vertex="1">
          <mxGeometry x="-654" y="123.85" width="223" height="263.14532001201917" as="geometry" />
        </mxCell>
        <mxCell id="YxDH78quZ-EtWejgUxgi-32" value="" style="shape=tableRow;horizontal=0;startSize=0;swimlaneHead=0;swimlaneBody=0;fillColor=none;collapsible=0;dropTarget=0;points=[[0,0.5],[1,0.5]];portConstraint=eastwest;top=0;left=0;right=0;bottom=1;fontSize=17;" parent="YxDH78quZ-EtWejgUxgi-31" vertex="1">
          <mxGeometry y="30" width="223" height="30" as="geometry" />
        </mxCell>
        <mxCell id="YxDH78quZ-EtWejgUxgi-33" value="PK" style="shape=partialRectangle;connectable=0;fillColor=none;top=0;left=0;bottom=0;right=0;fontStyle=1;overflow=hidden;whiteSpace=wrap;html=1;fontSize=17;" parent="YxDH78quZ-EtWejgUxgi-32" vertex="1">
          <mxGeometry width="30" height="30" as="geometry">
            <mxRectangle width="30" height="30" as="alternateBounds" />
          </mxGeometry>
        </mxCell>
        <mxCell id="YxDH78quZ-EtWejgUxgi-34" value="ID" style="shape=partialRectangle;connectable=0;fillColor=none;top=0;left=0;bottom=0;right=0;align=left;spacingLeft=6;fontStyle=5;overflow=hidden;whiteSpace=wrap;html=1;fontSize=17;" parent="YxDH78quZ-EtWejgUxgi-32" vertex="1">
          <mxGeometry x="30" width="193" height="30" as="geometry">
            <mxRectangle width="193" height="30" as="alternateBounds" />
          </mxGeometry>
        </mxCell>
        <mxCell id="YxDH78quZ-EtWejgUxgi-35" value="" style="shape=tableRow;horizontal=0;startSize=0;swimlaneHead=0;swimlaneBody=0;fillColor=none;collapsible=0;dropTarget=0;points=[[0,0.5],[1,0.5]];portConstraint=eastwest;top=0;left=0;right=0;bottom=0;fontSize=17;" parent="YxDH78quZ-EtWejgUxgi-31" vertex="1">
          <mxGeometry y="60" width="223" height="30" as="geometry" />
        </mxCell>
        <mxCell id="YxDH78quZ-EtWejgUxgi-36" value="" style="shape=partialRectangle;connectable=0;fillColor=none;top=0;left=0;bottom=0;right=0;editable=1;overflow=hidden;whiteSpace=wrap;html=1;fontSize=17;" parent="YxDH78quZ-EtWejgUxgi-35" vertex="1">
          <mxGeometry width="30" height="30" as="geometry">
            <mxRectangle width="30" height="30" as="alternateBounds" />
          </mxGeometry>
        </mxCell>
        <mxCell id="YxDH78quZ-EtWejgUxgi-37" value="first_name&amp;nbsp;&lt;b&gt;Varchar(45)&lt;/b&gt;" style="shape=partialRectangle;connectable=0;fillColor=none;top=0;left=0;bottom=0;right=0;align=left;spacingLeft=6;overflow=hidden;whiteSpace=wrap;html=1;fontSize=17;" parent="YxDH78quZ-EtWejgUxgi-35" vertex="1">
          <mxGeometry x="30" width="193" height="30" as="geometry">
            <mxRectangle width="193" height="30" as="alternateBounds" />
          </mxGeometry>
        </mxCell>
        <mxCell id="YxDH78quZ-EtWejgUxgi-38" value="" style="shape=tableRow;horizontal=0;startSize=0;swimlaneHead=0;swimlaneBody=0;fillColor=none;collapsible=0;dropTarget=0;points=[[0,0.5],[1,0.5]];portConstraint=eastwest;top=0;left=0;right=0;bottom=0;fontSize=17;" parent="YxDH78quZ-EtWejgUxgi-31" vertex="1">
          <mxGeometry y="90" width="223" height="30" as="geometry" />
        </mxCell>
        <mxCell id="YxDH78quZ-EtWejgUxgi-39" value="" style="shape=partialRectangle;connectable=0;fillColor=none;top=0;left=0;bottom=0;right=0;editable=1;overflow=hidden;whiteSpace=wrap;html=1;fontSize=17;" parent="YxDH78quZ-EtWejgUxgi-38" vertex="1">
          <mxGeometry width="30" height="30" as="geometry">
            <mxRectangle width="30" height="30" as="alternateBounds" />
          </mxGeometry>
        </mxCell>
        <mxCell id="YxDH78quZ-EtWejgUxgi-40" value="last_name&amp;nbsp;&lt;b&gt;Varchar(45)&lt;/b&gt;" style="shape=partialRectangle;connectable=0;fillColor=none;top=0;left=0;bottom=0;right=0;align=left;spacingLeft=6;overflow=hidden;whiteSpace=wrap;html=1;fontSize=17;" parent="YxDH78quZ-EtWejgUxgi-38" vertex="1">
          <mxGeometry x="30" width="193" height="30" as="geometry">
            <mxRectangle width="193" height="30" as="alternateBounds" />
          </mxGeometry>
        </mxCell>
        <mxCell id="YxDH78quZ-EtWejgUxgi-56" value="" style="shape=tableRow;horizontal=0;startSize=0;swimlaneHead=0;swimlaneBody=0;fillColor=none;collapsible=0;dropTarget=0;points=[[0,0.5],[1,0.5]];portConstraint=eastwest;top=0;left=0;right=0;bottom=0;fontSize=17;" parent="YxDH78quZ-EtWejgUxgi-31" vertex="1">
          <mxGeometry y="120" width="223" height="30" as="geometry" />
        </mxCell>
        <mxCell id="YxDH78quZ-EtWejgUxgi-57" value="" style="shape=partialRectangle;connectable=0;fillColor=none;top=0;left=0;bottom=0;right=0;editable=1;overflow=hidden;whiteSpace=wrap;html=1;fontSize=17;" parent="YxDH78quZ-EtWejgUxgi-56" vertex="1">
          <mxGeometry width="30" height="30" as="geometry">
            <mxRectangle width="30" height="30" as="alternateBounds" />
          </mxGeometry>
        </mxCell>
        <mxCell id="YxDH78quZ-EtWejgUxgi-58" value="email&amp;nbsp;&lt;b&gt;Varchar(45)&lt;/b&gt;" style="shape=partialRectangle;connectable=0;fillColor=none;top=0;left=0;bottom=0;right=0;align=left;spacingLeft=6;overflow=hidden;whiteSpace=wrap;html=1;fontSize=17;" parent="YxDH78quZ-EtWejgUxgi-56" vertex="1">
          <mxGeometry x="30" width="193" height="30" as="geometry">
            <mxRectangle width="193" height="30" as="alternateBounds" />
          </mxGeometry>
        </mxCell>
        <mxCell id="YxDH78quZ-EtWejgUxgi-254" value="" style="shape=tableRow;horizontal=0;startSize=0;swimlaneHead=0;swimlaneBody=0;fillColor=none;collapsible=0;dropTarget=0;points=[[0,0.5],[1,0.5]];portConstraint=eastwest;top=0;left=0;right=0;bottom=0;fontSize=17;" parent="YxDH78quZ-EtWejgUxgi-31" vertex="1">
          <mxGeometry y="150" width="223" height="30" as="geometry" />
        </mxCell>
        <mxCell id="YxDH78quZ-EtWejgUxgi-255" value="" style="shape=partialRectangle;connectable=0;fillColor=none;top=0;left=0;bottom=0;right=0;editable=1;overflow=hidden;whiteSpace=wrap;html=1;fontSize=17;" parent="YxDH78quZ-EtWejgUxgi-254" vertex="1">
          <mxGeometry width="30" height="30" as="geometry">
            <mxRectangle width="30" height="30" as="alternateBounds" />
          </mxGeometry>
        </mxCell>
        <mxCell id="YxDH78quZ-EtWejgUxgi-256" value="Password&amp;nbsp;&lt;b&gt;Varchar(45)&lt;/b&gt;" style="shape=partialRectangle;connectable=0;fillColor=none;top=0;left=0;bottom=0;right=0;align=left;spacingLeft=6;overflow=hidden;whiteSpace=wrap;html=1;fontSize=17;" parent="YxDH78quZ-EtWejgUxgi-254" vertex="1">
          <mxGeometry x="30" width="193" height="30" as="geometry">
            <mxRectangle width="193" height="30" as="alternateBounds" />
          </mxGeometry>
        </mxCell>
        <mxCell id="YxDH78quZ-EtWejgUxgi-41" value="" style="shape=tableRow;horizontal=0;startSize=0;swimlaneHead=0;swimlaneBody=0;fillColor=none;collapsible=0;dropTarget=0;points=[[0,0.5],[1,0.5]];portConstraint=eastwest;top=0;left=0;right=0;bottom=0;fontSize=17;" parent="YxDH78quZ-EtWejgUxgi-31" vertex="1">
          <mxGeometry y="180" width="223" height="30" as="geometry" />
        </mxCell>
        <mxCell id="YxDH78quZ-EtWejgUxgi-42" value="" style="shape=partialRectangle;connectable=0;fillColor=none;top=0;left=0;bottom=0;right=0;editable=1;overflow=hidden;whiteSpace=wrap;html=1;fontSize=17;" parent="YxDH78quZ-EtWejgUxgi-41" vertex="1">
          <mxGeometry width="30" height="30" as="geometry">
            <mxRectangle width="30" height="30" as="alternateBounds" />
          </mxGeometry>
        </mxCell>
        <mxCell id="YxDH78quZ-EtWejgUxgi-43" value="phone_No&amp;nbsp;&lt;b&gt;Varchar(45)&lt;/b&gt;" style="shape=partialRectangle;connectable=0;fillColor=none;top=0;left=0;bottom=0;right=0;align=left;spacingLeft=6;overflow=hidden;whiteSpace=wrap;html=1;fontSize=17;" parent="YxDH78quZ-EtWejgUxgi-41" vertex="1">
          <mxGeometry x="30" width="193" height="30" as="geometry">
            <mxRectangle width="193" height="30" as="alternateBounds" />
          </mxGeometry>
        </mxCell>
        <mxCell id="YxDH78quZ-EtWejgUxgi-44" value="" style="shape=tableRow;horizontal=0;startSize=0;swimlaneHead=0;swimlaneBody=0;fillColor=none;collapsible=0;dropTarget=0;points=[[0,0.5],[1,0.5]];portConstraint=eastwest;top=0;left=0;right=0;bottom=0;fontSize=17;" parent="YxDH78quZ-EtWejgUxgi-31" vertex="1">
          <mxGeometry y="210" width="223" height="23" as="geometry" />
        </mxCell>
        <mxCell id="YxDH78quZ-EtWejgUxgi-45" value="" style="shape=partialRectangle;connectable=0;fillColor=none;top=0;left=0;bottom=0;right=0;editable=1;overflow=hidden;whiteSpace=wrap;html=1;fontSize=17;" parent="YxDH78quZ-EtWejgUxgi-44" vertex="1">
          <mxGeometry width="30" height="23" as="geometry">
            <mxRectangle width="30" height="23" as="alternateBounds" />
          </mxGeometry>
        </mxCell>
        <mxCell id="YxDH78quZ-EtWejgUxgi-46" value="address&amp;nbsp;&lt;b&gt;Varchar(45)&lt;/b&gt;" style="shape=partialRectangle;connectable=0;fillColor=none;top=0;left=0;bottom=0;right=0;align=left;spacingLeft=6;overflow=hidden;whiteSpace=wrap;html=1;fontSize=17;" parent="YxDH78quZ-EtWejgUxgi-44" vertex="1">
          <mxGeometry x="30" width="193" height="23" as="geometry">
            <mxRectangle width="193" height="23" as="alternateBounds" />
          </mxGeometry>
        </mxCell>
        <mxCell id="YxDH78quZ-EtWejgUxgi-47" value="" style="shape=tableRow;horizontal=0;startSize=0;swimlaneHead=0;swimlaneBody=0;fillColor=none;collapsible=0;dropTarget=0;points=[[0,0.5],[1,0.5]];portConstraint=eastwest;top=0;left=0;right=0;bottom=0;fontSize=17;" parent="YxDH78quZ-EtWejgUxgi-31" vertex="1">
          <mxGeometry y="233" width="223" height="30" as="geometry" />
        </mxCell>
        <mxCell id="YxDH78quZ-EtWejgUxgi-48" value="" style="shape=partialRectangle;connectable=0;fillColor=none;top=0;left=0;bottom=0;right=0;editable=1;overflow=hidden;whiteSpace=wrap;html=1;fontSize=17;" parent="YxDH78quZ-EtWejgUxgi-47" vertex="1">
          <mxGeometry width="30" height="30" as="geometry">
            <mxRectangle width="30" height="30" as="alternateBounds" />
          </mxGeometry>
        </mxCell>
        <mxCell id="YxDH78quZ-EtWejgUxgi-49" value="role&amp;nbsp;&lt;b&gt;Varchar(45)&lt;/b&gt;" style="shape=partialRectangle;connectable=0;fillColor=none;top=0;left=0;bottom=0;right=0;align=left;spacingLeft=6;overflow=hidden;whiteSpace=wrap;html=1;fontSize=17;" parent="YxDH78quZ-EtWejgUxgi-47" vertex="1">
          <mxGeometry x="30" width="193" height="30" as="geometry">
            <mxRectangle width="193" height="30" as="alternateBounds" />
          </mxGeometry>
        </mxCell>
        <mxCell id="YxDH78quZ-EtWejgUxgi-59" value="Customer" style="shape=table;startSize=31;container=1;collapsible=1;childLayout=tableLayout;fixedRows=1;rowLines=0;fontStyle=1;align=center;resizeLast=1;html=1;fontSize=17;" parent="1" vertex="1">
          <mxGeometry x="178" y="102" width="180" height="121" as="geometry" />
        </mxCell>
        <mxCell id="YxDH78quZ-EtWejgUxgi-60" value="" style="shape=tableRow;horizontal=0;startSize=0;swimlaneHead=0;swimlaneBody=0;fillColor=none;collapsible=0;dropTarget=0;points=[[0,0.5],[1,0.5]];portConstraint=eastwest;top=0;left=0;right=0;bottom=1;fontSize=17;" parent="YxDH78quZ-EtWejgUxgi-59" vertex="1">
          <mxGeometry y="31" width="180" height="30" as="geometry" />
        </mxCell>
        <mxCell id="YxDH78quZ-EtWejgUxgi-61" value="PK" style="shape=partialRectangle;connectable=0;fillColor=none;top=0;left=0;bottom=0;right=0;fontStyle=1;overflow=hidden;whiteSpace=wrap;html=1;fontSize=17;" parent="YxDH78quZ-EtWejgUxgi-60" vertex="1">
          <mxGeometry width="30" height="30" as="geometry">
            <mxRectangle width="30" height="30" as="alternateBounds" />
          </mxGeometry>
        </mxCell>
        <mxCell id="YxDH78quZ-EtWejgUxgi-62" value="ID" style="shape=partialRectangle;connectable=0;fillColor=none;top=0;left=0;bottom=0;right=0;align=left;spacingLeft=6;fontStyle=5;overflow=hidden;whiteSpace=wrap;html=1;fontSize=17;" parent="YxDH78quZ-EtWejgUxgi-60" vertex="1">
          <mxGeometry x="30" width="150" height="30" as="geometry">
            <mxRectangle width="150" height="30" as="alternateBounds" />
          </mxGeometry>
        </mxCell>
        <mxCell id="YxDH78quZ-EtWejgUxgi-63" value="" style="shape=tableRow;horizontal=0;startSize=0;swimlaneHead=0;swimlaneBody=0;fillColor=none;collapsible=0;dropTarget=0;points=[[0,0.5],[1,0.5]];portConstraint=eastwest;top=0;left=0;right=0;bottom=0;fontSize=17;" parent="YxDH78quZ-EtWejgUxgi-59" vertex="1">
          <mxGeometry y="61" width="180" height="30" as="geometry" />
        </mxCell>
        <mxCell id="YxDH78quZ-EtWejgUxgi-64" value="FK" style="shape=partialRectangle;connectable=0;fillColor=none;top=0;left=0;bottom=0;right=0;editable=1;overflow=hidden;whiteSpace=wrap;html=1;fontSize=17;" parent="YxDH78quZ-EtWejgUxgi-63" vertex="1">
          <mxGeometry width="30" height="30" as="geometry">
            <mxRectangle width="30" height="30" as="alternateBounds" />
          </mxGeometry>
        </mxCell>
        <mxCell id="YxDH78quZ-EtWejgUxgi-65" value="User_Id" style="shape=partialRectangle;connectable=0;fillColor=none;top=0;left=0;bottom=0;right=0;align=left;spacingLeft=6;overflow=hidden;whiteSpace=wrap;html=1;fontSize=17;" parent="YxDH78quZ-EtWejgUxgi-63" vertex="1">
          <mxGeometry x="30" width="150" height="30" as="geometry">
            <mxRectangle width="150" height="30" as="alternateBounds" />
          </mxGeometry>
        </mxCell>
        <mxCell id="YxDH78quZ-EtWejgUxgi-72" value="" style="shape=tableRow;horizontal=0;startSize=0;swimlaneHead=0;swimlaneBody=0;fillColor=none;collapsible=0;dropTarget=0;points=[[0,0.5],[1,0.5]];portConstraint=eastwest;top=0;left=0;right=0;bottom=0;fontSize=17;" parent="YxDH78quZ-EtWejgUxgi-59" vertex="1">
          <mxGeometry y="91" width="180" height="30" as="geometry" />
        </mxCell>
        <mxCell id="YxDH78quZ-EtWejgUxgi-73" value="FK" style="shape=partialRectangle;connectable=0;fillColor=none;top=0;left=0;bottom=0;right=0;editable=1;overflow=hidden;whiteSpace=wrap;html=1;fontSize=17;" parent="YxDH78quZ-EtWejgUxgi-72" vertex="1">
          <mxGeometry width="30" height="30" as="geometry">
            <mxRectangle width="30" height="30" as="alternateBounds" />
          </mxGeometry>
        </mxCell>
        <mxCell id="YxDH78quZ-EtWejgUxgi-74" value="Ride_id" style="shape=partialRectangle;connectable=0;fillColor=none;top=0;left=0;bottom=0;right=0;align=left;spacingLeft=6;overflow=hidden;whiteSpace=wrap;html=1;fontSize=17;" parent="YxDH78quZ-EtWejgUxgi-72" vertex="1">
          <mxGeometry x="30" width="150" height="30" as="geometry">
            <mxRectangle width="150" height="30" as="alternateBounds" />
          </mxGeometry>
        </mxCell>
        <mxCell id="YxDH78quZ-EtWejgUxgi-78" value="Ride" style="shape=table;startSize=30;container=1;collapsible=1;childLayout=tableLayout;fixedRows=1;rowLines=0;fontStyle=1;align=center;resizeLast=1;html=1;fontSize=17;" parent="1" vertex="1">
          <mxGeometry x="727" y="-111" width="289" height="270" as="geometry" />
        </mxCell>
        <mxCell id="YxDH78quZ-EtWejgUxgi-79" value="" style="shape=tableRow;horizontal=0;startSize=0;swimlaneHead=0;swimlaneBody=0;fillColor=none;collapsible=0;dropTarget=0;points=[[0,0.5],[1,0.5]];portConstraint=eastwest;top=0;left=0;right=0;bottom=1;fontSize=17;" parent="YxDH78quZ-EtWejgUxgi-78" vertex="1">
          <mxGeometry y="30" width="289" height="30" as="geometry" />
        </mxCell>
        <mxCell id="YxDH78quZ-EtWejgUxgi-80" value="PK" style="shape=partialRectangle;connectable=0;fillColor=none;top=0;left=0;bottom=0;right=0;fontStyle=1;overflow=hidden;whiteSpace=wrap;html=1;fontSize=17;" parent="YxDH78quZ-EtWejgUxgi-79" vertex="1">
          <mxGeometry width="30" height="30" as="geometry">
            <mxRectangle width="30" height="30" as="alternateBounds" />
          </mxGeometry>
        </mxCell>
        <mxCell id="YxDH78quZ-EtWejgUxgi-81" value="ID" style="shape=partialRectangle;connectable=0;fillColor=none;top=0;left=0;bottom=0;right=0;align=left;spacingLeft=6;fontStyle=5;overflow=hidden;whiteSpace=wrap;html=1;fontSize=17;" parent="YxDH78quZ-EtWejgUxgi-79" vertex="1">
          <mxGeometry x="30" width="259" height="30" as="geometry">
            <mxRectangle width="259" height="30" as="alternateBounds" />
          </mxGeometry>
        </mxCell>
        <mxCell id="YxDH78quZ-EtWejgUxgi-82" value="" style="shape=tableRow;horizontal=0;startSize=0;swimlaneHead=0;swimlaneBody=0;fillColor=none;collapsible=0;dropTarget=0;points=[[0,0.5],[1,0.5]];portConstraint=eastwest;top=0;left=0;right=0;bottom=0;fontSize=17;" parent="YxDH78quZ-EtWejgUxgi-78" vertex="1">
          <mxGeometry y="60" width="289" height="30" as="geometry" />
        </mxCell>
        <mxCell id="YxDH78quZ-EtWejgUxgi-83" value="FK" style="shape=partialRectangle;connectable=0;fillColor=none;top=0;left=0;bottom=0;right=0;editable=1;overflow=hidden;whiteSpace=wrap;html=1;fontSize=17;" parent="YxDH78quZ-EtWejgUxgi-82" vertex="1">
          <mxGeometry width="30" height="30" as="geometry">
            <mxRectangle width="30" height="30" as="alternateBounds" />
          </mxGeometry>
        </mxCell>
        <mxCell id="YxDH78quZ-EtWejgUxgi-84" value="Cab_Id" style="shape=partialRectangle;connectable=0;fillColor=none;top=0;left=0;bottom=0;right=0;align=left;spacingLeft=6;overflow=hidden;whiteSpace=wrap;html=1;fontSize=17;" parent="YxDH78quZ-EtWejgUxgi-82" vertex="1">
          <mxGeometry x="30" width="259" height="30" as="geometry">
            <mxRectangle width="259" height="30" as="alternateBounds" />
          </mxGeometry>
        </mxCell>
        <mxCell id="YxDH78quZ-EtWejgUxgi-163" value="" style="shape=tableRow;horizontal=0;startSize=0;swimlaneHead=0;swimlaneBody=0;fillColor=none;collapsible=0;dropTarget=0;points=[[0,0.5],[1,0.5]];portConstraint=eastwest;top=0;left=0;right=0;bottom=0;fontSize=17;" parent="YxDH78quZ-EtWejgUxgi-78" vertex="1">
          <mxGeometry y="90" width="289" height="30" as="geometry" />
        </mxCell>
        <mxCell id="YxDH78quZ-EtWejgUxgi-164" value="" style="shape=partialRectangle;connectable=0;fillColor=none;top=0;left=0;bottom=0;right=0;editable=1;overflow=hidden;whiteSpace=wrap;html=1;fontSize=17;" parent="YxDH78quZ-EtWejgUxgi-163" vertex="1">
          <mxGeometry width="30" height="30" as="geometry">
            <mxRectangle width="30" height="30" as="alternateBounds" />
          </mxGeometry>
        </mxCell>
        <mxCell id="YxDH78quZ-EtWejgUxgi-165" value="Pickup_Location" style="shape=partialRectangle;connectable=0;fillColor=none;top=0;left=0;bottom=0;right=0;align=left;spacingLeft=6;overflow=hidden;whiteSpace=wrap;html=1;fontSize=17;" parent="YxDH78quZ-EtWejgUxgi-163" vertex="1">
          <mxGeometry x="30" width="259" height="30" as="geometry">
            <mxRectangle width="259" height="30" as="alternateBounds" />
          </mxGeometry>
        </mxCell>
        <mxCell id="YxDH78quZ-EtWejgUxgi-85" value="" style="shape=tableRow;horizontal=0;startSize=0;swimlaneHead=0;swimlaneBody=0;fillColor=none;collapsible=0;dropTarget=0;points=[[0,0.5],[1,0.5]];portConstraint=eastwest;top=0;left=0;right=0;bottom=0;fontSize=17;" parent="YxDH78quZ-EtWejgUxgi-78" vertex="1">
          <mxGeometry y="120" width="289" height="30" as="geometry" />
        </mxCell>
        <mxCell id="YxDH78quZ-EtWejgUxgi-86" value="" style="shape=partialRectangle;connectable=0;fillColor=none;top=0;left=0;bottom=0;right=0;editable=1;overflow=hidden;whiteSpace=wrap;html=1;fontSize=17;" parent="YxDH78quZ-EtWejgUxgi-85" vertex="1">
          <mxGeometry width="30" height="30" as="geometry">
            <mxRectangle width="30" height="30" as="alternateBounds" />
          </mxGeometry>
        </mxCell>
        <mxCell id="YxDH78quZ-EtWejgUxgi-87" value="Drop_Location" style="shape=partialRectangle;connectable=0;fillColor=none;top=0;left=0;bottom=0;right=0;align=left;spacingLeft=6;overflow=hidden;whiteSpace=wrap;html=1;fontSize=17;" parent="YxDH78quZ-EtWejgUxgi-85" vertex="1">
          <mxGeometry x="30" width="259" height="30" as="geometry">
            <mxRectangle width="259" height="30" as="alternateBounds" />
          </mxGeometry>
        </mxCell>
        <mxCell id="YxDH78quZ-EtWejgUxgi-88" value="" style="shape=tableRow;horizontal=0;startSize=0;swimlaneHead=0;swimlaneBody=0;fillColor=none;collapsible=0;dropTarget=0;points=[[0,0.5],[1,0.5]];portConstraint=eastwest;top=0;left=0;right=0;bottom=0;fontSize=17;" parent="YxDH78quZ-EtWejgUxgi-78" vertex="1">
          <mxGeometry y="150" width="289" height="30" as="geometry" />
        </mxCell>
        <mxCell id="YxDH78quZ-EtWejgUxgi-89" value="" style="shape=partialRectangle;connectable=0;fillColor=none;top=0;left=0;bottom=0;right=0;editable=1;overflow=hidden;whiteSpace=wrap;html=1;fontSize=17;" parent="YxDH78quZ-EtWejgUxgi-88" vertex="1">
          <mxGeometry width="30" height="30" as="geometry">
            <mxRectangle width="30" height="30" as="alternateBounds" />
          </mxGeometry>
        </mxCell>
        <mxCell id="YxDH78quZ-EtWejgUxgi-90" value="Rating int" style="shape=partialRectangle;connectable=0;fillColor=none;top=0;left=0;bottom=0;right=0;align=left;spacingLeft=6;overflow=hidden;whiteSpace=wrap;html=1;fontSize=17;" parent="YxDH78quZ-EtWejgUxgi-88" vertex="1">
          <mxGeometry x="30" width="259" height="30" as="geometry">
            <mxRectangle width="259" height="30" as="alternateBounds" />
          </mxGeometry>
        </mxCell>
        <mxCell id="YxDH78quZ-EtWejgUxgi-91" value="" style="shape=tableRow;horizontal=0;startSize=0;swimlaneHead=0;swimlaneBody=0;fillColor=none;collapsible=0;dropTarget=0;points=[[0,0.5],[1,0.5]];portConstraint=eastwest;top=0;left=0;right=0;bottom=0;fontSize=17;" parent="YxDH78quZ-EtWejgUxgi-78" vertex="1">
          <mxGeometry y="180" width="289" height="30" as="geometry" />
        </mxCell>
        <mxCell id="YxDH78quZ-EtWejgUxgi-92" value="" style="shape=partialRectangle;connectable=0;fillColor=none;top=0;left=0;bottom=0;right=0;editable=1;overflow=hidden;whiteSpace=wrap;html=1;fontSize=17;" parent="YxDH78quZ-EtWejgUxgi-91" vertex="1">
          <mxGeometry width="30" height="30" as="geometry">
            <mxRectangle width="30" height="30" as="alternateBounds" />
          </mxGeometry>
        </mxCell>
        <mxCell id="YxDH78quZ-EtWejgUxgi-93" value="Fare int" style="shape=partialRectangle;connectable=0;fillColor=none;top=0;left=0;bottom=0;right=0;align=left;spacingLeft=6;overflow=hidden;whiteSpace=wrap;html=1;fontSize=17;" parent="YxDH78quZ-EtWejgUxgi-91" vertex="1">
          <mxGeometry x="30" width="259" height="30" as="geometry">
            <mxRectangle width="259" height="30" as="alternateBounds" />
          </mxGeometry>
        </mxCell>
        <mxCell id="YxDH78quZ-EtWejgUxgi-94" value="" style="shape=tableRow;horizontal=0;startSize=0;swimlaneHead=0;swimlaneBody=0;fillColor=none;collapsible=0;dropTarget=0;points=[[0,0.5],[1,0.5]];portConstraint=eastwest;top=0;left=0;right=0;bottom=0;fontSize=17;" parent="YxDH78quZ-EtWejgUxgi-78" vertex="1">
          <mxGeometry y="210" width="289" height="30" as="geometry" />
        </mxCell>
        <mxCell id="YxDH78quZ-EtWejgUxgi-95" value="" style="shape=partialRectangle;connectable=0;fillColor=none;top=0;left=0;bottom=0;right=0;editable=1;overflow=hidden;whiteSpace=wrap;html=1;fontSize=17;" parent="YxDH78quZ-EtWejgUxgi-94" vertex="1">
          <mxGeometry width="30" height="30" as="geometry">
            <mxRectangle width="30" height="30" as="alternateBounds" />
          </mxGeometry>
        </mxCell>
        <mxCell id="YxDH78quZ-EtWejgUxgi-96" value="Distance int" style="shape=partialRectangle;connectable=0;fillColor=none;top=0;left=0;bottom=0;right=0;align=left;spacingLeft=6;overflow=hidden;whiteSpace=wrap;html=1;fontSize=17;" parent="YxDH78quZ-EtWejgUxgi-94" vertex="1">
          <mxGeometry x="30" width="259" height="30" as="geometry">
            <mxRectangle width="259" height="30" as="alternateBounds" />
          </mxGeometry>
        </mxCell>
        <mxCell id="YxDH78quZ-EtWejgUxgi-185" value="" style="shape=tableRow;horizontal=0;startSize=0;swimlaneHead=0;swimlaneBody=0;fillColor=none;collapsible=0;dropTarget=0;points=[[0,0.5],[1,0.5]];portConstraint=eastwest;top=0;left=0;right=0;bottom=0;fontSize=17;" parent="YxDH78quZ-EtWejgUxgi-78" vertex="1">
          <mxGeometry y="240" width="289" height="30" as="geometry" />
        </mxCell>
        <mxCell id="YxDH78quZ-EtWejgUxgi-186" value="" style="shape=partialRectangle;connectable=0;fillColor=none;top=0;left=0;bottom=0;right=0;editable=1;overflow=hidden;whiteSpace=wrap;html=1;fontSize=17;" parent="YxDH78quZ-EtWejgUxgi-185" vertex="1">
          <mxGeometry width="30" height="30" as="geometry">
            <mxRectangle width="30" height="30" as="alternateBounds" />
          </mxGeometry>
        </mxCell>
        <mxCell id="YxDH78quZ-EtWejgUxgi-187" value="Booking_Status&amp;nbsp;&lt;b&gt;Varchar(45)&lt;/b&gt;" style="shape=partialRectangle;connectable=0;fillColor=none;top=0;left=0;bottom=0;right=0;align=left;spacingLeft=6;overflow=hidden;whiteSpace=wrap;html=1;fontSize=17;" parent="YxDH78quZ-EtWejgUxgi-185" vertex="1">
          <mxGeometry x="30" width="259" height="30" as="geometry">
            <mxRectangle width="259" height="30" as="alternateBounds" />
          </mxGeometry>
        </mxCell>
        <mxCell id="YxDH78quZ-EtWejgUxgi-100" value="Cab" style="shape=table;startSize=30;container=1;collapsible=1;childLayout=tableLayout;fixedRows=1;rowLines=0;fontStyle=1;align=center;resizeLast=1;html=1;fontSize=17;" parent="1" vertex="1">
          <mxGeometry x="218" y="-400" width="305" height="210" as="geometry" />
        </mxCell>
        <mxCell id="YxDH78quZ-EtWejgUxgi-101" value="" style="shape=tableRow;horizontal=0;startSize=0;swimlaneHead=0;swimlaneBody=0;fillColor=none;collapsible=0;dropTarget=0;points=[[0,0.5],[1,0.5]];portConstraint=eastwest;top=0;left=0;right=0;bottom=1;fontSize=17;" parent="YxDH78quZ-EtWejgUxgi-100" vertex="1">
          <mxGeometry y="30" width="305" height="30" as="geometry" />
        </mxCell>
        <mxCell id="YxDH78quZ-EtWejgUxgi-102" value="PK" style="shape=partialRectangle;connectable=0;fillColor=none;top=0;left=0;bottom=0;right=0;fontStyle=1;overflow=hidden;whiteSpace=wrap;html=1;fontSize=17;" parent="YxDH78quZ-EtWejgUxgi-101" vertex="1">
          <mxGeometry width="30" height="30" as="geometry">
            <mxRectangle width="30" height="30" as="alternateBounds" />
          </mxGeometry>
        </mxCell>
        <mxCell id="YxDH78quZ-EtWejgUxgi-103" value="ID int Not Null" style="shape=partialRectangle;connectable=0;fillColor=none;top=0;left=0;bottom=0;right=0;align=left;spacingLeft=6;fontStyle=5;overflow=hidden;whiteSpace=wrap;html=1;fontSize=17;" parent="YxDH78quZ-EtWejgUxgi-101" vertex="1">
          <mxGeometry x="30" width="275" height="30" as="geometry">
            <mxRectangle width="275" height="30" as="alternateBounds" />
          </mxGeometry>
        </mxCell>
        <mxCell id="YxDH78quZ-EtWejgUxgi-188" value="" style="shape=tableRow;horizontal=0;startSize=0;swimlaneHead=0;swimlaneBody=0;fillColor=none;collapsible=0;dropTarget=0;points=[[0,0.5],[1,0.5]];portConstraint=eastwest;top=0;left=0;right=0;bottom=0;fontSize=17;" parent="YxDH78quZ-EtWejgUxgi-100" vertex="1">
          <mxGeometry y="60" width="305" height="30" as="geometry" />
        </mxCell>
        <mxCell id="YxDH78quZ-EtWejgUxgi-189" value="" style="shape=partialRectangle;connectable=0;fillColor=none;top=0;left=0;bottom=0;right=0;editable=1;overflow=hidden;whiteSpace=wrap;html=1;fontSize=17;" parent="YxDH78quZ-EtWejgUxgi-188" vertex="1">
          <mxGeometry width="30" height="30" as="geometry">
            <mxRectangle width="30" height="30" as="alternateBounds" />
          </mxGeometry>
        </mxCell>
        <mxCell id="YxDH78quZ-EtWejgUxgi-190" value="Reg_No&amp;nbsp;&lt;b&gt;Varchar(45)&lt;/b&gt;" style="shape=partialRectangle;connectable=0;fillColor=none;top=0;left=0;bottom=0;right=0;align=left;spacingLeft=6;overflow=hidden;whiteSpace=wrap;html=1;fontSize=17;" parent="YxDH78quZ-EtWejgUxgi-188" vertex="1">
          <mxGeometry x="30" width="275" height="30" as="geometry">
            <mxRectangle width="275" height="30" as="alternateBounds" />
          </mxGeometry>
        </mxCell>
        <mxCell id="YxDH78quZ-EtWejgUxgi-107" value="" style="shape=tableRow;horizontal=0;startSize=0;swimlaneHead=0;swimlaneBody=0;fillColor=none;collapsible=0;dropTarget=0;points=[[0,0.5],[1,0.5]];portConstraint=eastwest;top=0;left=0;right=0;bottom=0;fontSize=17;" parent="YxDH78quZ-EtWejgUxgi-100" vertex="1">
          <mxGeometry y="90" width="305" height="30" as="geometry" />
        </mxCell>
        <mxCell id="YxDH78quZ-EtWejgUxgi-108" value="" style="shape=partialRectangle;connectable=0;fillColor=none;top=0;left=0;bottom=0;right=0;editable=1;overflow=hidden;whiteSpace=wrap;html=1;fontSize=17;" parent="YxDH78quZ-EtWejgUxgi-107" vertex="1">
          <mxGeometry width="30" height="30" as="geometry">
            <mxRectangle width="30" height="30" as="alternateBounds" />
          </mxGeometry>
        </mxCell>
        <mxCell id="YxDH78quZ-EtWejgUxgi-109" value="Seating_Capacity &lt;b&gt;int&lt;/b&gt;" style="shape=partialRectangle;connectable=0;fillColor=none;top=0;left=0;bottom=0;right=0;align=left;spacingLeft=6;overflow=hidden;whiteSpace=wrap;html=1;fontSize=17;" parent="YxDH78quZ-EtWejgUxgi-107" vertex="1">
          <mxGeometry x="30" width="275" height="30" as="geometry">
            <mxRectangle width="275" height="30" as="alternateBounds" />
          </mxGeometry>
        </mxCell>
        <mxCell id="YxDH78quZ-EtWejgUxgi-110" value="" style="shape=tableRow;horizontal=0;startSize=0;swimlaneHead=0;swimlaneBody=0;fillColor=none;collapsible=0;dropTarget=0;points=[[0,0.5],[1,0.5]];portConstraint=eastwest;top=0;left=0;right=0;bottom=0;fontSize=17;" parent="YxDH78quZ-EtWejgUxgi-100" vertex="1">
          <mxGeometry y="120" width="305" height="30" as="geometry" />
        </mxCell>
        <mxCell id="YxDH78quZ-EtWejgUxgi-111" value="" style="shape=partialRectangle;connectable=0;fillColor=none;top=0;left=0;bottom=0;right=0;editable=1;overflow=hidden;whiteSpace=wrap;html=1;fontSize=17;" parent="YxDH78quZ-EtWejgUxgi-110" vertex="1">
          <mxGeometry width="30" height="30" as="geometry">
            <mxRectangle width="30" height="30" as="alternateBounds" />
          </mxGeometry>
        </mxCell>
        <mxCell id="YxDH78quZ-EtWejgUxgi-112" value="Color&amp;nbsp;&lt;b&gt;Varchar(20)&lt;/b&gt;" style="shape=partialRectangle;connectable=0;fillColor=none;top=0;left=0;bottom=0;right=0;align=left;spacingLeft=6;overflow=hidden;whiteSpace=wrap;html=1;fontSize=17;" parent="YxDH78quZ-EtWejgUxgi-110" vertex="1">
          <mxGeometry x="30" width="275" height="30" as="geometry">
            <mxRectangle width="275" height="30" as="alternateBounds" />
          </mxGeometry>
        </mxCell>
        <mxCell id="YxDH78quZ-EtWejgUxgi-116" value="" style="shape=tableRow;horizontal=0;startSize=0;swimlaneHead=0;swimlaneBody=0;fillColor=none;collapsible=0;dropTarget=0;points=[[0,0.5],[1,0.5]];portConstraint=eastwest;top=0;left=0;right=0;bottom=0;fontSize=17;" parent="YxDH78quZ-EtWejgUxgi-100" vertex="1">
          <mxGeometry y="150" width="305" height="30" as="geometry" />
        </mxCell>
        <mxCell id="YxDH78quZ-EtWejgUxgi-117" value="" style="shape=partialRectangle;connectable=0;fillColor=none;top=0;left=0;bottom=0;right=0;editable=1;overflow=hidden;whiteSpace=wrap;html=1;fontSize=17;" parent="YxDH78quZ-EtWejgUxgi-116" vertex="1">
          <mxGeometry width="30" height="30" as="geometry">
            <mxRectangle width="30" height="30" as="alternateBounds" />
          </mxGeometry>
        </mxCell>
        <mxCell id="YxDH78quZ-EtWejgUxgi-118" value="Model&amp;nbsp;&lt;b&gt;Varchar(45)&lt;/b&gt;" style="shape=partialRectangle;connectable=0;fillColor=none;top=0;left=0;bottom=0;right=0;align=left;spacingLeft=6;overflow=hidden;whiteSpace=wrap;html=1;fontSize=17;" parent="YxDH78quZ-EtWejgUxgi-116" vertex="1">
          <mxGeometry x="30" width="275" height="30" as="geometry">
            <mxRectangle width="275" height="30" as="alternateBounds" />
          </mxGeometry>
        </mxCell>
        <mxCell id="YxDH78quZ-EtWejgUxgi-119" value="" style="shape=tableRow;horizontal=0;startSize=0;swimlaneHead=0;swimlaneBody=0;fillColor=none;collapsible=0;dropTarget=0;points=[[0,0.5],[1,0.5]];portConstraint=eastwest;top=0;left=0;right=0;bottom=0;fontSize=17;" parent="YxDH78quZ-EtWejgUxgi-100" vertex="1">
          <mxGeometry y="180" width="305" height="30" as="geometry" />
        </mxCell>
        <mxCell id="YxDH78quZ-EtWejgUxgi-120" value="" style="shape=partialRectangle;connectable=0;fillColor=none;top=0;left=0;bottom=0;right=0;editable=1;overflow=hidden;whiteSpace=wrap;html=1;fontSize=17;" parent="YxDH78quZ-EtWejgUxgi-119" vertex="1">
          <mxGeometry width="30" height="30" as="geometry">
            <mxRectangle width="30" height="30" as="alternateBounds" />
          </mxGeometry>
        </mxCell>
        <mxCell id="YxDH78quZ-EtWejgUxgi-121" value="Status&amp;nbsp;&lt;b&gt;Varchar(45)&lt;/b&gt;" style="shape=partialRectangle;connectable=0;fillColor=none;top=0;left=0;bottom=0;right=0;align=left;spacingLeft=6;overflow=hidden;whiteSpace=wrap;html=1;fontSize=17;" parent="YxDH78quZ-EtWejgUxgi-119" vertex="1">
          <mxGeometry x="30" width="275" height="30" as="geometry">
            <mxRectangle width="275" height="30" as="alternateBounds" />
          </mxGeometry>
        </mxCell>
        <mxCell id="YxDH78quZ-EtWejgUxgi-128" value="Driver" style="shape=table;startSize=30;container=1;collapsible=1;childLayout=tableLayout;fixedRows=1;rowLines=0;fontStyle=1;align=center;resizeLast=1;html=1;fontSize=17;" parent="1" vertex="1">
          <mxGeometry x="-119" y="440" width="180" height="180" as="geometry" />
        </mxCell>
        <mxCell id="YxDH78quZ-EtWejgUxgi-129" value="" style="shape=tableRow;horizontal=0;startSize=0;swimlaneHead=0;swimlaneBody=0;fillColor=none;collapsible=0;dropTarget=0;points=[[0,0.5],[1,0.5]];portConstraint=eastwest;top=0;left=0;right=0;bottom=1;fontSize=17;" parent="YxDH78quZ-EtWejgUxgi-128" vertex="1">
          <mxGeometry y="30" width="180" height="30" as="geometry" />
        </mxCell>
        <mxCell id="YxDH78quZ-EtWejgUxgi-130" value="PK" style="shape=partialRectangle;connectable=0;fillColor=none;top=0;left=0;bottom=0;right=0;fontStyle=1;overflow=hidden;whiteSpace=wrap;html=1;fontSize=17;" parent="YxDH78quZ-EtWejgUxgi-129" vertex="1">
          <mxGeometry width="30" height="30" as="geometry">
            <mxRectangle width="30" height="30" as="alternateBounds" />
          </mxGeometry>
        </mxCell>
        <mxCell id="YxDH78quZ-EtWejgUxgi-131" value="ID" style="shape=partialRectangle;connectable=0;fillColor=none;top=0;left=0;bottom=0;right=0;align=left;spacingLeft=6;fontStyle=5;overflow=hidden;whiteSpace=wrap;html=1;fontSize=17;" parent="YxDH78quZ-EtWejgUxgi-129" vertex="1">
          <mxGeometry x="30" width="150" height="30" as="geometry">
            <mxRectangle width="150" height="30" as="alternateBounds" />
          </mxGeometry>
        </mxCell>
        <mxCell id="YxDH78quZ-EtWejgUxgi-132" value="" style="shape=tableRow;horizontal=0;startSize=0;swimlaneHead=0;swimlaneBody=0;fillColor=none;collapsible=0;dropTarget=0;points=[[0,0.5],[1,0.5]];portConstraint=eastwest;top=0;left=0;right=0;bottom=0;fontSize=17;" parent="YxDH78quZ-EtWejgUxgi-128" vertex="1">
          <mxGeometry y="60" width="180" height="30" as="geometry" />
        </mxCell>
        <mxCell id="YxDH78quZ-EtWejgUxgi-133" value="FK" style="shape=partialRectangle;connectable=0;fillColor=none;top=0;left=0;bottom=0;right=0;editable=1;overflow=hidden;whiteSpace=wrap;html=1;fontSize=17;" parent="YxDH78quZ-EtWejgUxgi-132" vertex="1">
          <mxGeometry width="30" height="30" as="geometry">
            <mxRectangle width="30" height="30" as="alternateBounds" />
          </mxGeometry>
        </mxCell>
        <mxCell id="YxDH78quZ-EtWejgUxgi-134" value="User_Id" style="shape=partialRectangle;connectable=0;fillColor=none;top=0;left=0;bottom=0;right=0;align=left;spacingLeft=6;overflow=hidden;whiteSpace=wrap;html=1;fontSize=17;" parent="YxDH78quZ-EtWejgUxgi-132" vertex="1">
          <mxGeometry x="30" width="150" height="30" as="geometry">
            <mxRectangle width="150" height="30" as="alternateBounds" />
          </mxGeometry>
        </mxCell>
        <mxCell id="oKJhpVfzUX_Z_Kkq6TDM-1" value="" style="shape=tableRow;horizontal=0;startSize=0;swimlaneHead=0;swimlaneBody=0;fillColor=none;collapsible=0;dropTarget=0;points=[[0,0.5],[1,0.5]];portConstraint=eastwest;top=0;left=0;right=0;bottom=0;fontSize=17;" vertex="1" parent="YxDH78quZ-EtWejgUxgi-128">
          <mxGeometry y="90" width="180" height="30" as="geometry" />
        </mxCell>
        <mxCell id="oKJhpVfzUX_Z_Kkq6TDM-2" value="" style="shape=partialRectangle;connectable=0;fillColor=none;top=0;left=0;bottom=0;right=0;editable=1;overflow=hidden;whiteSpace=wrap;html=1;fontSize=17;" vertex="1" parent="oKJhpVfzUX_Z_Kkq6TDM-1">
          <mxGeometry width="30" height="30" as="geometry">
            <mxRectangle width="30" height="30" as="alternateBounds" />
          </mxGeometry>
        </mxCell>
        <mxCell id="oKJhpVfzUX_Z_Kkq6TDM-3" value="Drivers_License" style="shape=partialRectangle;connectable=0;fillColor=none;top=0;left=0;bottom=0;right=0;align=left;spacingLeft=6;overflow=hidden;whiteSpace=wrap;html=1;fontSize=17;" vertex="1" parent="oKJhpVfzUX_Z_Kkq6TDM-1">
          <mxGeometry x="30" width="150" height="30" as="geometry">
            <mxRectangle width="150" height="30" as="alternateBounds" />
          </mxGeometry>
        </mxCell>
        <mxCell id="YxDH78quZ-EtWejgUxgi-135" value="" style="shape=tableRow;horizontal=0;startSize=0;swimlaneHead=0;swimlaneBody=0;fillColor=none;collapsible=0;dropTarget=0;points=[[0,0.5],[1,0.5]];portConstraint=eastwest;top=0;left=0;right=0;bottom=0;fontSize=17;" parent="YxDH78quZ-EtWejgUxgi-128" vertex="1">
          <mxGeometry y="120" width="180" height="30" as="geometry" />
        </mxCell>
        <mxCell id="YxDH78quZ-EtWejgUxgi-136" value="" style="shape=partialRectangle;connectable=0;fillColor=none;top=0;left=0;bottom=0;right=0;editable=1;overflow=hidden;whiteSpace=wrap;html=1;fontSize=17;" parent="YxDH78quZ-EtWejgUxgi-135" vertex="1">
          <mxGeometry width="30" height="30" as="geometry">
            <mxRectangle width="30" height="30" as="alternateBounds" />
          </mxGeometry>
        </mxCell>
        <mxCell id="YxDH78quZ-EtWejgUxgi-137" value="Start_Time Date" style="shape=partialRectangle;connectable=0;fillColor=none;top=0;left=0;bottom=0;right=0;align=left;spacingLeft=6;overflow=hidden;whiteSpace=wrap;html=1;fontSize=17;" parent="YxDH78quZ-EtWejgUxgi-135" vertex="1">
          <mxGeometry x="30" width="150" height="30" as="geometry">
            <mxRectangle width="150" height="30" as="alternateBounds" />
          </mxGeometry>
        </mxCell>
        <mxCell id="YxDH78quZ-EtWejgUxgi-138" value="" style="shape=tableRow;horizontal=0;startSize=0;swimlaneHead=0;swimlaneBody=0;fillColor=none;collapsible=0;dropTarget=0;points=[[0,0.5],[1,0.5]];portConstraint=eastwest;top=0;left=0;right=0;bottom=0;fontSize=17;" parent="YxDH78quZ-EtWejgUxgi-128" vertex="1">
          <mxGeometry y="150" width="180" height="30" as="geometry" />
        </mxCell>
        <mxCell id="YxDH78quZ-EtWejgUxgi-139" value="" style="shape=partialRectangle;connectable=0;fillColor=none;top=0;left=0;bottom=0;right=0;editable=1;overflow=hidden;whiteSpace=wrap;html=1;fontSize=17;" parent="YxDH78quZ-EtWejgUxgi-138" vertex="1">
          <mxGeometry width="30" height="30" as="geometry">
            <mxRectangle width="30" height="30" as="alternateBounds" />
          </mxGeometry>
        </mxCell>
        <mxCell id="YxDH78quZ-EtWejgUxgi-140" value="End_Time Date" style="shape=partialRectangle;connectable=0;fillColor=none;top=0;left=0;bottom=0;right=0;align=left;spacingLeft=6;overflow=hidden;whiteSpace=wrap;html=1;fontSize=17;" parent="YxDH78quZ-EtWejgUxgi-138" vertex="1">
          <mxGeometry x="30" width="150" height="30" as="geometry">
            <mxRectangle width="150" height="30" as="alternateBounds" />
          </mxGeometry>
        </mxCell>
        <mxCell id="YxDH78quZ-EtWejgUxgi-144" value="Payment" style="shape=table;startSize=30;container=1;collapsible=1;childLayout=tableLayout;fixedRows=1;rowLines=0;fontStyle=1;align=center;resizeLast=1;html=1;fontSize=17;" parent="1" vertex="1">
          <mxGeometry x="474" y="387" width="284" height="181.17" as="geometry" />
        </mxCell>
        <mxCell id="YxDH78quZ-EtWejgUxgi-145" value="" style="shape=tableRow;horizontal=0;startSize=0;swimlaneHead=0;swimlaneBody=0;fillColor=none;collapsible=0;dropTarget=0;points=[[0,0.5],[1,0.5]];portConstraint=eastwest;top=0;left=0;right=0;bottom=1;fontSize=17;" parent="YxDH78quZ-EtWejgUxgi-144" vertex="1">
          <mxGeometry y="30" width="284" height="31" as="geometry" />
        </mxCell>
        <mxCell id="YxDH78quZ-EtWejgUxgi-146" value="PK" style="shape=partialRectangle;connectable=0;fillColor=none;top=0;left=0;bottom=0;right=0;fontStyle=1;overflow=hidden;whiteSpace=wrap;html=1;fontSize=17;" parent="YxDH78quZ-EtWejgUxgi-145" vertex="1">
          <mxGeometry width="30" height="31" as="geometry">
            <mxRectangle width="30" height="31" as="alternateBounds" />
          </mxGeometry>
        </mxCell>
        <mxCell id="YxDH78quZ-EtWejgUxgi-147" value="ID" style="shape=partialRectangle;connectable=0;fillColor=none;top=0;left=0;bottom=0;right=0;align=left;spacingLeft=6;fontStyle=5;overflow=hidden;whiteSpace=wrap;html=1;fontSize=17;" parent="YxDH78quZ-EtWejgUxgi-145" vertex="1">
          <mxGeometry x="30" width="254" height="31" as="geometry">
            <mxRectangle width="254" height="31" as="alternateBounds" />
          </mxGeometry>
        </mxCell>
        <mxCell id="YxDH78quZ-EtWejgUxgi-148" value="" style="shape=tableRow;horizontal=0;startSize=0;swimlaneHead=0;swimlaneBody=0;fillColor=none;collapsible=0;dropTarget=0;points=[[0,0.5],[1,0.5]];portConstraint=eastwest;top=0;left=0;right=0;bottom=0;fontSize=17;" parent="YxDH78quZ-EtWejgUxgi-144" vertex="1">
          <mxGeometry y="61" width="284" height="30" as="geometry" />
        </mxCell>
        <mxCell id="YxDH78quZ-EtWejgUxgi-149" value="" style="shape=partialRectangle;connectable=0;fillColor=none;top=0;left=0;bottom=0;right=0;editable=1;overflow=hidden;whiteSpace=wrap;html=1;fontSize=17;" parent="YxDH78quZ-EtWejgUxgi-148" vertex="1">
          <mxGeometry width="30" height="30" as="geometry">
            <mxRectangle width="30" height="30" as="alternateBounds" />
          </mxGeometry>
        </mxCell>
        <mxCell id="YxDH78quZ-EtWejgUxgi-150" value="Customer_Id" style="shape=partialRectangle;connectable=0;fillColor=none;top=0;left=0;bottom=0;right=0;align=left;spacingLeft=6;overflow=hidden;whiteSpace=wrap;html=1;fontSize=17;" parent="YxDH78quZ-EtWejgUxgi-148" vertex="1">
          <mxGeometry x="30" width="254" height="30" as="geometry">
            <mxRectangle width="254" height="30" as="alternateBounds" />
          </mxGeometry>
        </mxCell>
        <mxCell id="YxDH78quZ-EtWejgUxgi-157" value="" style="shape=tableRow;horizontal=0;startSize=0;swimlaneHead=0;swimlaneBody=0;fillColor=none;collapsible=0;dropTarget=0;points=[[0,0.5],[1,0.5]];portConstraint=eastwest;top=0;left=0;right=0;bottom=0;fontSize=17;" parent="YxDH78quZ-EtWejgUxgi-144" vertex="1">
          <mxGeometry y="91" width="284" height="30" as="geometry" />
        </mxCell>
        <mxCell id="YxDH78quZ-EtWejgUxgi-158" value="" style="shape=partialRectangle;connectable=0;fillColor=none;top=0;left=0;bottom=0;right=0;editable=1;overflow=hidden;whiteSpace=wrap;html=1;fontSize=17;" parent="YxDH78quZ-EtWejgUxgi-157" vertex="1">
          <mxGeometry width="30" height="30" as="geometry">
            <mxRectangle width="30" height="30" as="alternateBounds" />
          </mxGeometry>
        </mxCell>
        <mxCell id="YxDH78quZ-EtWejgUxgi-159" value="Ride_Id" style="shape=partialRectangle;connectable=0;fillColor=none;top=0;left=0;bottom=0;right=0;align=left;spacingLeft=6;overflow=hidden;whiteSpace=wrap;html=1;fontSize=17;" parent="YxDH78quZ-EtWejgUxgi-157" vertex="1">
          <mxGeometry x="30" width="254" height="30" as="geometry">
            <mxRectangle width="254" height="30" as="alternateBounds" />
          </mxGeometry>
        </mxCell>
        <mxCell id="YxDH78quZ-EtWejgUxgi-160" value="" style="shape=tableRow;horizontal=0;startSize=0;swimlaneHead=0;swimlaneBody=0;fillColor=none;collapsible=0;dropTarget=0;points=[[0,0.5],[1,0.5]];portConstraint=eastwest;top=0;left=0;right=0;bottom=0;fontSize=17;" parent="YxDH78quZ-EtWejgUxgi-144" vertex="1">
          <mxGeometry y="121" width="284" height="30" as="geometry" />
        </mxCell>
        <mxCell id="YxDH78quZ-EtWejgUxgi-161" value="" style="shape=partialRectangle;connectable=0;fillColor=none;top=0;left=0;bottom=0;right=0;editable=1;overflow=hidden;whiteSpace=wrap;html=1;fontSize=17;" parent="YxDH78quZ-EtWejgUxgi-160" vertex="1">
          <mxGeometry width="30" height="30" as="geometry">
            <mxRectangle width="30" height="30" as="alternateBounds" />
          </mxGeometry>
        </mxCell>
        <mxCell id="YxDH78quZ-EtWejgUxgi-162" value="Payment_Type&amp;nbsp;&lt;b&gt;Varchar(45)&lt;/b&gt;" style="shape=partialRectangle;connectable=0;fillColor=none;top=0;left=0;bottom=0;right=0;align=left;spacingLeft=6;overflow=hidden;whiteSpace=wrap;html=1;fontSize=17;" parent="YxDH78quZ-EtWejgUxgi-160" vertex="1">
          <mxGeometry x="30" width="254" height="30" as="geometry">
            <mxRectangle width="254" height="30" as="alternateBounds" />
          </mxGeometry>
        </mxCell>
        <mxCell id="YxDH78quZ-EtWejgUxgi-181" value="" style="shape=tableRow;horizontal=0;startSize=0;swimlaneHead=0;swimlaneBody=0;fillColor=none;collapsible=0;dropTarget=0;points=[[0,0.5],[1,0.5]];portConstraint=eastwest;top=0;left=0;right=0;bottom=0;fontSize=17;" parent="YxDH78quZ-EtWejgUxgi-144" vertex="1">
          <mxGeometry y="151" width="284" height="30" as="geometry" />
        </mxCell>
        <mxCell id="YxDH78quZ-EtWejgUxgi-182" value="" style="shape=partialRectangle;connectable=0;fillColor=none;top=0;left=0;bottom=0;right=0;editable=1;overflow=hidden;whiteSpace=wrap;html=1;fontSize=17;" parent="YxDH78quZ-EtWejgUxgi-181" vertex="1">
          <mxGeometry width="30" height="30" as="geometry">
            <mxRectangle width="30" height="30" as="alternateBounds" />
          </mxGeometry>
        </mxCell>
        <mxCell id="YxDH78quZ-EtWejgUxgi-183" value="Payment_Status&amp;nbsp;&lt;b&gt;Varchar(45)&lt;/b&gt;" style="shape=partialRectangle;connectable=0;fillColor=none;top=0;left=0;bottom=0;right=0;align=left;spacingLeft=6;overflow=hidden;whiteSpace=wrap;html=1;fontSize=17;" parent="YxDH78quZ-EtWejgUxgi-181" vertex="1">
          <mxGeometry x="30" width="254" height="30" as="geometry">
            <mxRectangle width="254" height="30" as="alternateBounds" />
          </mxGeometry>
        </mxCell>
        <mxCell id="YxDH78quZ-EtWejgUxgi-171" style="edgeStyle=orthogonalEdgeStyle;rounded=0;orthogonalLoop=1;jettySize=auto;html=1;exitX=1;exitY=0.5;exitDx=0;exitDy=0;entryX=0;entryY=0.5;entryDx=0;entryDy=0;fontSize=17;" parent="1" source="YxDH78quZ-EtWejgUxgi-32" target="YxDH78quZ-EtWejgUxgi-63" edge="1">
          <mxGeometry relative="1" as="geometry" />
        </mxCell>
        <mxCell id="YxDH78quZ-EtWejgUxgi-173" style="edgeStyle=orthogonalEdgeStyle;rounded=0;orthogonalLoop=1;jettySize=auto;html=1;exitX=1;exitY=0.5;exitDx=0;exitDy=0;entryX=0;entryY=0.5;entryDx=0;entryDy=0;fontSize=17;" parent="1" source="YxDH78quZ-EtWejgUxgi-32" target="YxDH78quZ-EtWejgUxgi-132" edge="1">
          <mxGeometry relative="1" as="geometry" />
        </mxCell>
        <mxCell id="YxDH78quZ-EtWejgUxgi-174" style="edgeStyle=orthogonalEdgeStyle;rounded=0;orthogonalLoop=1;jettySize=auto;html=1;exitX=1;exitY=0.5;exitDx=0;exitDy=0;entryX=0;entryY=0.5;entryDx=0;entryDy=0;fontSize=17;" parent="1" source="YxDH78quZ-EtWejgUxgi-101" target="YxDH78quZ-EtWejgUxgi-82" edge="1">
          <mxGeometry relative="1" as="geometry">
            <mxPoint x="883.3333333333335" y="48" as="targetPoint" />
          </mxGeometry>
        </mxCell>
        <mxCell id="YxDH78quZ-EtWejgUxgi-175" style="edgeStyle=orthogonalEdgeStyle;rounded=0;orthogonalLoop=1;jettySize=auto;html=1;exitX=1;exitY=0.5;exitDx=0;exitDy=0;fontSize=17;" parent="1" source="YxDH78quZ-EtWejgUxgi-60" target="YxDH78quZ-EtWejgUxgi-148" edge="1">
          <mxGeometry relative="1" as="geometry">
            <mxPoint x="465" y="463" as="targetPoint" />
          </mxGeometry>
        </mxCell>
        <mxCell id="YxDH78quZ-EtWejgUxgi-178" style="edgeStyle=orthogonalEdgeStyle;rounded=0;orthogonalLoop=1;jettySize=auto;html=1;exitX=0;exitY=0.5;exitDx=0;exitDy=0;entryX=0;entryY=0.5;entryDx=0;entryDy=0;fontSize=17;" parent="1" source="YxDH78quZ-EtWejgUxgi-79" target="YxDH78quZ-EtWejgUxgi-72" edge="1">
          <mxGeometry relative="1" as="geometry" />
        </mxCell>
        <mxCell id="YxDH78quZ-EtWejgUxgi-180" style="edgeStyle=orthogonalEdgeStyle;rounded=0;orthogonalLoop=1;jettySize=auto;html=1;exitX=0;exitY=0.5;exitDx=0;exitDy=0;entryX=0;entryY=0.5;entryDx=0;entryDy=0;fontSize=17;" parent="1" source="YxDH78quZ-EtWejgUxgi-79" target="YxDH78quZ-EtWejgUxgi-157" edge="1">
          <mxGeometry relative="1" as="geometry" />
        </mxCell>
        <mxCell id="YxDH78quZ-EtWejgUxgi-184" style="edgeStyle=orthogonalEdgeStyle;rounded=0;orthogonalLoop=1;jettySize=auto;html=1;exitX=0;exitY=0.5;exitDx=0;exitDy=0;entryX=0;entryY=0.5;entryDx=0;entryDy=0;" parent="1" source="YxDH78quZ-EtWejgUxgi-32" target="YxDH78quZ-EtWejgUxgi-12" edge="1">
          <mxGeometry relative="1" as="geometry" />
        </mxCell>
        <mxCell id="YxDH78quZ-EtWejgUxgi-211" style="edgeStyle=orthogonalEdgeStyle;rounded=0;orthogonalLoop=1;jettySize=auto;html=1;exitX=1;exitY=0.5;exitDx=0;exitDy=0;entryX=0;entryY=0.5;entryDx=0;entryDy=0;" parent="1" source="YxDH78quZ-EtWejgUxgi-198" target="YxDH78quZ-EtWejgUxgi-210" edge="1">
          <mxGeometry relative="1" as="geometry" />
        </mxCell>
        <mxCell id="YxDH78quZ-EtWejgUxgi-198" value="&lt;font style=&quot;font-size: 17px;&quot;&gt;User&lt;/font&gt;" style="rounded=0;whiteSpace=wrap;html=1;" parent="1" vertex="1">
          <mxGeometry x="1645" y="-4" width="120" height="60" as="geometry" />
        </mxCell>
        <mxCell id="YxDH78quZ-EtWejgUxgi-216" style="edgeStyle=orthogonalEdgeStyle;rounded=0;orthogonalLoop=1;jettySize=auto;html=1;exitX=1;exitY=0.5;exitDx=0;exitDy=0;entryX=0;entryY=0.5;entryDx=0;entryDy=0;" parent="1" source="YxDH78quZ-EtWejgUxgi-199" target="YxDH78quZ-EtWejgUxgi-215" edge="1">
          <mxGeometry relative="1" as="geometry" />
        </mxCell>
        <mxCell id="YxDH78quZ-EtWejgUxgi-199" value="&lt;font style=&quot;font-size: 17px;&quot;&gt;Customer&lt;/font&gt;" style="rounded=0;whiteSpace=wrap;html=1;" parent="1" vertex="1">
          <mxGeometry x="2072" y="-4" width="120" height="60" as="geometry" />
        </mxCell>
        <mxCell id="YxDH78quZ-EtWejgUxgi-262" style="edgeStyle=orthogonalEdgeStyle;rounded=0;orthogonalLoop=1;jettySize=auto;html=1;entryX=0.5;entryY=1;entryDx=0;entryDy=0;" parent="1" source="YxDH78quZ-EtWejgUxgi-200" target="YxDH78quZ-EtWejgUxgi-257" edge="1">
          <mxGeometry relative="1" as="geometry">
            <mxPoint x="2335" y="126" as="targetPoint" />
          </mxGeometry>
        </mxCell>
        <mxCell id="YxDH78quZ-EtWejgUxgi-200" value="&lt;font style=&quot;font-size: 17px;&quot;&gt;Driver&lt;/font&gt;" style="rounded=0;whiteSpace=wrap;html=1;" parent="1" vertex="1">
          <mxGeometry x="2072" y="169" width="120" height="60" as="geometry" />
        </mxCell>
        <mxCell id="YxDH78quZ-EtWejgUxgi-201" value="&lt;font style=&quot;font-size: 17px;&quot;&gt;Cab&lt;/font&gt;" style="rounded=0;whiteSpace=wrap;html=1;" parent="1" vertex="1">
          <mxGeometry x="2745.5" y="-199.00000000000003" width="120" height="60" as="geometry" />
        </mxCell>
        <mxCell id="YxDH78quZ-EtWejgUxgi-223" style="edgeStyle=orthogonalEdgeStyle;rounded=0;orthogonalLoop=1;jettySize=auto;html=1;exitX=1;exitY=0.5;exitDx=0;exitDy=0;entryX=0;entryY=0.5;entryDx=0;entryDy=0;" parent="1" source="YxDH78quZ-EtWejgUxgi-202" target="YxDH78quZ-EtWejgUxgi-220" edge="1">
          <mxGeometry relative="1" as="geometry">
            <mxPoint x="2635.504169170673" y="252.00857309194703" as="targetPoint" />
          </mxGeometry>
        </mxCell>
        <mxCell id="YxDH78quZ-EtWejgUxgi-202" value="&lt;font style=&quot;font-size: 17px;&quot;&gt;Ride&lt;/font&gt;" style="rounded=0;whiteSpace=wrap;html=1;" parent="1" vertex="1">
          <mxGeometry x="2415" y="180" width="120" height="60" as="geometry" />
        </mxCell>
        <mxCell id="YxDH78quZ-EtWejgUxgi-237" style="edgeStyle=orthogonalEdgeStyle;rounded=0;orthogonalLoop=1;jettySize=auto;html=1;exitX=0.5;exitY=0;exitDx=0;exitDy=0;entryX=0.5;entryY=1;entryDx=0;entryDy=0;" parent="1" source="YxDH78quZ-EtWejgUxgi-203" target="YxDH78quZ-EtWejgUxgi-235" edge="1">
          <mxGeometry relative="1" as="geometry" />
        </mxCell>
        <mxCell id="YxDH78quZ-EtWejgUxgi-203" value="&lt;font style=&quot;font-size: 17px;&quot;&gt;Payment&lt;/font&gt;" style="rounded=0;whiteSpace=wrap;html=1;" parent="1" vertex="1">
          <mxGeometry x="2465" y="680" width="120" height="60" as="geometry" />
        </mxCell>
        <mxCell id="YxDH78quZ-EtWejgUxgi-226" style="edgeStyle=orthogonalEdgeStyle;rounded=0;orthogonalLoop=1;jettySize=auto;html=1;exitX=1;exitY=0.5;exitDx=0;exitDy=0;entryX=0;entryY=0.5;entryDx=0;entryDy=0;" parent="1" source="YxDH78quZ-EtWejgUxgi-204" target="YxDH78quZ-EtWejgUxgi-224" edge="1">
          <mxGeometry relative="1" as="geometry" />
        </mxCell>
        <mxCell id="YxDH78quZ-EtWejgUxgi-269" style="edgeStyle=orthogonalEdgeStyle;rounded=0;orthogonalLoop=1;jettySize=auto;html=1;" parent="1" source="YxDH78quZ-EtWejgUxgi-204" target="YxDH78quZ-EtWejgUxgi-268" edge="1">
          <mxGeometry relative="1" as="geometry">
            <mxPoint x="2128" y="-258.0769230769231" as="targetPoint" />
          </mxGeometry>
        </mxCell>
        <mxCell id="YxDH78quZ-EtWejgUxgi-204" value="&lt;font style=&quot;font-size: 17px;&quot;&gt;Owner&lt;/font&gt;" style="rounded=0;whiteSpace=wrap;html=1;" parent="1" vertex="1">
          <mxGeometry x="2068" y="-319" width="120" height="60" as="geometry" />
        </mxCell>
        <mxCell id="YxDH78quZ-EtWejgUxgi-212" style="edgeStyle=orthogonalEdgeStyle;rounded=0;orthogonalLoop=1;jettySize=auto;html=1;exitX=1;exitY=0.5;exitDx=0;exitDy=0;entryX=0;entryY=0.5;entryDx=0;entryDy=0;" parent="1" source="YxDH78quZ-EtWejgUxgi-210" target="YxDH78quZ-EtWejgUxgi-204" edge="1">
          <mxGeometry relative="1" as="geometry" />
        </mxCell>
        <mxCell id="YxDH78quZ-EtWejgUxgi-213" style="edgeStyle=orthogonalEdgeStyle;rounded=0;orthogonalLoop=1;jettySize=auto;html=1;exitX=1;exitY=0.5;exitDx=0;exitDy=0;" parent="1" source="YxDH78quZ-EtWejgUxgi-210" target="YxDH78quZ-EtWejgUxgi-199" edge="1">
          <mxGeometry relative="1" as="geometry" />
        </mxCell>
        <mxCell id="YxDH78quZ-EtWejgUxgi-214" style="edgeStyle=orthogonalEdgeStyle;rounded=0;orthogonalLoop=1;jettySize=auto;html=1;exitX=1;exitY=0.5;exitDx=0;exitDy=0;entryX=0;entryY=0.5;entryDx=0;entryDy=0;" parent="1" source="YxDH78quZ-EtWejgUxgi-210" target="YxDH78quZ-EtWejgUxgi-200" edge="1">
          <mxGeometry relative="1" as="geometry" />
        </mxCell>
        <mxCell id="YxDH78quZ-EtWejgUxgi-210" value="&lt;font style=&quot;font-size: 17px;&quot;&gt;Is a&lt;/font&gt;" style="rhombus;whiteSpace=wrap;html=1;" parent="1" vertex="1">
          <mxGeometry x="1876" y="-14" width="80" height="80" as="geometry" />
        </mxCell>
        <mxCell id="YxDH78quZ-EtWejgUxgi-218" style="edgeStyle=orthogonalEdgeStyle;rounded=0;orthogonalLoop=1;jettySize=auto;html=1;exitX=0.5;exitY=1;exitDx=0;exitDy=0;entryX=0.5;entryY=0;entryDx=0;entryDy=0;" parent="1" source="YxDH78quZ-EtWejgUxgi-215" target="YxDH78quZ-EtWejgUxgi-202" edge="1">
          <mxGeometry relative="1" as="geometry" />
        </mxCell>
        <mxCell id="YxDH78quZ-EtWejgUxgi-215" value="&lt;font style=&quot;font-size: 17px;&quot;&gt;Books&lt;/font&gt;" style="rhombus;whiteSpace=wrap;html=1;" parent="1" vertex="1">
          <mxGeometry x="2435" y="-14" width="80" height="80" as="geometry" />
        </mxCell>
        <mxCell id="YxDH78quZ-EtWejgUxgi-228" style="edgeStyle=orthogonalEdgeStyle;rounded=0;orthogonalLoop=1;jettySize=auto;html=1;exitX=0.5;exitY=0;exitDx=0;exitDy=0;entryX=0.5;entryY=1;entryDx=0;entryDy=0;" parent="1" source="YxDH78quZ-EtWejgUxgi-220" target="YxDH78quZ-EtWejgUxgi-201" edge="1">
          <mxGeometry relative="1" as="geometry" />
        </mxCell>
        <mxCell id="YxDH78quZ-EtWejgUxgi-220" value="&lt;font style=&quot;font-size: 17px;&quot;&gt;Chosen For&lt;/font&gt;" style="rhombus;whiteSpace=wrap;html=1;" parent="1" vertex="1">
          <mxGeometry x="2955" y="224.99999999999997" width="155" height="106" as="geometry" />
        </mxCell>
        <mxCell id="YxDH78quZ-EtWejgUxgi-227" style="edgeStyle=orthogonalEdgeStyle;rounded=0;orthogonalLoop=1;jettySize=auto;html=1;exitX=1;exitY=0.5;exitDx=0;exitDy=0;entryX=0;entryY=0.5;entryDx=0;entryDy=0;" parent="1" source="YxDH78quZ-EtWejgUxgi-224" target="YxDH78quZ-EtWejgUxgi-201" edge="1">
          <mxGeometry relative="1" as="geometry" />
        </mxCell>
        <mxCell id="YxDH78quZ-EtWejgUxgi-224" value="&lt;font style=&quot;font-size: 17px;&quot;&gt;Owns&lt;/font&gt;" style="rhombus;whiteSpace=wrap;html=1;" parent="1" vertex="1">
          <mxGeometry x="2356" y="-209" width="98" height="80" as="geometry" />
        </mxCell>
        <mxCell id="YxDH78quZ-EtWejgUxgi-236" style="edgeStyle=orthogonalEdgeStyle;rounded=0;orthogonalLoop=1;jettySize=auto;html=1;exitX=0.5;exitY=0;exitDx=0;exitDy=0;entryX=0.5;entryY=1;entryDx=0;entryDy=0;" parent="1" source="YxDH78quZ-EtWejgUxgi-235" target="YxDH78quZ-EtWejgUxgi-202" edge="1">
          <mxGeometry relative="1" as="geometry" />
        </mxCell>
        <mxCell id="YxDH78quZ-EtWejgUxgi-235" value="&lt;font style=&quot;font-size: 17px;&quot;&gt;Is For&lt;/font&gt;" style="rhombus;whiteSpace=wrap;html=1;" parent="1" vertex="1">
          <mxGeometry x="2470" y="496" width="110" height="80" as="geometry" />
        </mxCell>
        <mxCell id="YxDH78quZ-EtWejgUxgi-248" style="edgeStyle=orthogonalEdgeStyle;rounded=0;orthogonalLoop=1;jettySize=auto;html=1;exitX=1;exitY=0.5;exitDx=0;exitDy=0;entryX=0;entryY=1;entryDx=0;entryDy=0;" parent="1" source="YxDH78quZ-EtWejgUxgi-238" target="YxDH78quZ-EtWejgUxgi-198" edge="1">
          <mxGeometry relative="1" as="geometry" />
        </mxCell>
        <mxCell id="YxDH78quZ-EtWejgUxgi-238" value="&lt;font style=&quot;font-size: 17px;&quot;&gt;Email&lt;/font&gt;" style="ellipse;whiteSpace=wrap;html=1;" parent="1" vertex="1">
          <mxGeometry x="1340" y="56" width="120" height="80" as="geometry" />
        </mxCell>
        <mxCell id="YxDH78quZ-EtWejgUxgi-249" style="edgeStyle=orthogonalEdgeStyle;rounded=0;orthogonalLoop=1;jettySize=auto;html=1;exitX=1;exitY=0.5;exitDx=0;exitDy=0;entryX=0.25;entryY=1;entryDx=0;entryDy=0;" parent="1" source="YxDH78quZ-EtWejgUxgi-239" target="YxDH78quZ-EtWejgUxgi-198" edge="1">
          <mxGeometry relative="1" as="geometry" />
        </mxCell>
        <mxCell id="YxDH78quZ-EtWejgUxgi-239" value="&lt;font style=&quot;font-size: 17px;&quot;&gt;Phone_No&lt;/font&gt;" style="ellipse;whiteSpace=wrap;html=1;" parent="1" vertex="1">
          <mxGeometry x="1451" y="157" width="120" height="80" as="geometry" />
        </mxCell>
        <mxCell id="YxDH78quZ-EtWejgUxgi-250" style="edgeStyle=orthogonalEdgeStyle;rounded=0;orthogonalLoop=1;jettySize=auto;html=1;exitX=1;exitY=0;exitDx=0;exitDy=0;entryX=0.5;entryY=1;entryDx=0;entryDy=0;" parent="1" source="YxDH78quZ-EtWejgUxgi-240" target="YxDH78quZ-EtWejgUxgi-198" edge="1">
          <mxGeometry relative="1" as="geometry" />
        </mxCell>
        <mxCell id="YxDH78quZ-EtWejgUxgi-240" value="&lt;font style=&quot;font-size: 17px;&quot;&gt;Role&lt;/font&gt;" style="ellipse;whiteSpace=wrap;html=1;" parent="1" vertex="1">
          <mxGeometry x="1603" y="212.57" width="120" height="80" as="geometry" />
        </mxCell>
        <mxCell id="YxDH78quZ-EtWejgUxgi-247" style="edgeStyle=orthogonalEdgeStyle;rounded=0;orthogonalLoop=1;jettySize=auto;html=1;exitX=1;exitY=0.5;exitDx=0;exitDy=0;" parent="1" source="YxDH78quZ-EtWejgUxgi-241" target="YxDH78quZ-EtWejgUxgi-198" edge="1">
          <mxGeometry relative="1" as="geometry" />
        </mxCell>
        <mxCell id="YxDH78quZ-EtWejgUxgi-241" value="&lt;font style=&quot;font-size: 17px;&quot;&gt;Last_Name&lt;/font&gt;" style="ellipse;whiteSpace=wrap;html=1;" parent="1" vertex="1">
          <mxGeometry x="1331" y="-63" width="120" height="80" as="geometry" />
        </mxCell>
        <mxCell id="YxDH78quZ-EtWejgUxgi-251" style="edgeStyle=orthogonalEdgeStyle;rounded=0;orthogonalLoop=1;jettySize=auto;html=1;exitX=1;exitY=0.5;exitDx=0;exitDy=0;entryX=0.5;entryY=0;entryDx=0;entryDy=0;" parent="1" source="YxDH78quZ-EtWejgUxgi-242" target="YxDH78quZ-EtWejgUxgi-198" edge="1">
          <mxGeometry relative="1" as="geometry" />
        </mxCell>
        <mxCell id="YxDH78quZ-EtWejgUxgi-242" value="&lt;font style=&quot;font-size: 17px;&quot;&gt;Address&lt;/font&gt;" style="ellipse;whiteSpace=wrap;html=1;" parent="1" vertex="1">
          <mxGeometry x="1498" y="-303" width="120" height="80" as="geometry" />
        </mxCell>
        <mxCell id="YxDH78quZ-EtWejgUxgi-244" style="edgeStyle=orthogonalEdgeStyle;rounded=0;orthogonalLoop=1;jettySize=auto;html=1;exitX=1;exitY=0.5;exitDx=0;exitDy=0;" parent="1" source="YxDH78quZ-EtWejgUxgi-243" edge="1">
          <mxGeometry relative="1" as="geometry">
            <mxPoint x="1660" y="-5" as="targetPoint" />
          </mxGeometry>
        </mxCell>
        <mxCell id="YxDH78quZ-EtWejgUxgi-243" value="&lt;font style=&quot;font-size: 17px;&quot;&gt;First_name&lt;/font&gt;" style="ellipse;whiteSpace=wrap;html=1;" parent="1" vertex="1">
          <mxGeometry x="1381" y="-183" width="123" height="80" as="geometry" />
        </mxCell>
        <mxCell id="YxDH78quZ-EtWejgUxgi-253" style="edgeStyle=orthogonalEdgeStyle;rounded=0;orthogonalLoop=1;jettySize=auto;html=1;exitX=0.5;exitY=0;exitDx=0;exitDy=0;entryX=0.75;entryY=1;entryDx=0;entryDy=0;" parent="1" source="YxDH78quZ-EtWejgUxgi-252" target="YxDH78quZ-EtWejgUxgi-198" edge="1">
          <mxGeometry relative="1" as="geometry" />
        </mxCell>
        <mxCell id="YxDH78quZ-EtWejgUxgi-252" value="&lt;font style=&quot;font-size: 17px;&quot;&gt;&lt;u&gt;User_Id&lt;/u&gt;&lt;/font&gt;" style="ellipse;whiteSpace=wrap;html=1;" parent="1" vertex="1">
          <mxGeometry x="1740" y="220" width="120" height="90" as="geometry" />
        </mxCell>
        <mxCell id="YxDH78quZ-EtWejgUxgi-267" style="edgeStyle=orthogonalEdgeStyle;rounded=0;orthogonalLoop=1;jettySize=auto;html=1;exitX=1;exitY=0.5;exitDx=0;exitDy=0;entryX=0.25;entryY=1;entryDx=0;entryDy=0;" parent="1" source="YxDH78quZ-EtWejgUxgi-257" target="YxDH78quZ-EtWejgUxgi-201" edge="1">
          <mxGeometry relative="1" as="geometry" />
        </mxCell>
        <mxCell id="YxDH78quZ-EtWejgUxgi-257" value="&lt;font style=&quot;font-size: 17px;&quot;&gt;Has a&lt;/font&gt;" style="rhombus;whiteSpace=wrap;html=1;" parent="1" vertex="1">
          <mxGeometry x="2321" y="-99" width="90" height="80" as="geometry" />
        </mxCell>
        <mxCell id="YxDH78quZ-EtWejgUxgi-268" value="&lt;font style=&quot;font-size: 17px;&quot;&gt;User_Id (FK)&lt;/font&gt;" style="ellipse;whiteSpace=wrap;html=1;" parent="1" vertex="1">
          <mxGeometry x="2068" y="-460" width="120" height="80" as="geometry" />
        </mxCell>
        <mxCell id="YxDH78quZ-EtWejgUxgi-302" style="edgeStyle=orthogonalEdgeStyle;rounded=0;orthogonalLoop=1;jettySize=auto;html=1;exitX=0;exitY=1;exitDx=0;exitDy=0;entryX=0.75;entryY=0;entryDx=0;entryDy=0;" parent="1" source="YxDH78quZ-EtWejgUxgi-270" target="YxDH78quZ-EtWejgUxgi-201" edge="1">
          <mxGeometry relative="1" as="geometry" />
        </mxCell>
        <mxCell id="YxDH78quZ-EtWejgUxgi-270" value="&lt;font style=&quot;font-size: 17px;&quot;&gt;Seating_Capacity&lt;/font&gt;" style="ellipse;whiteSpace=wrap;html=1;" parent="1" vertex="1">
          <mxGeometry x="2967" y="-460" width="166" height="80" as="geometry" />
        </mxCell>
        <mxCell id="YxDH78quZ-EtWejgUxgi-305" style="edgeStyle=orthogonalEdgeStyle;rounded=0;orthogonalLoop=1;jettySize=auto;html=1;exitX=0;exitY=0.5;exitDx=0;exitDy=0;entryX=1;entryY=1;entryDx=0;entryDy=0;" parent="1" source="YxDH78quZ-EtWejgUxgi-271" target="YxDH78quZ-EtWejgUxgi-201" edge="1">
          <mxGeometry relative="1" as="geometry" />
        </mxCell>
        <mxCell id="YxDH78quZ-EtWejgUxgi-271" value="&lt;font style=&quot;font-size: 17px;&quot;&gt;Status&lt;/font&gt;" style="ellipse;whiteSpace=wrap;html=1;" parent="1" vertex="1">
          <mxGeometry x="3096" y="-143" width="120" height="80" as="geometry" />
        </mxCell>
        <mxCell id="YxDH78quZ-EtWejgUxgi-304" style="edgeStyle=orthogonalEdgeStyle;rounded=0;orthogonalLoop=1;jettySize=auto;html=1;exitX=0;exitY=0.5;exitDx=0;exitDy=0;entryX=1;entryY=0.5;entryDx=0;entryDy=0;" parent="1" source="YxDH78quZ-EtWejgUxgi-272" target="YxDH78quZ-EtWejgUxgi-201" edge="1">
          <mxGeometry relative="1" as="geometry" />
        </mxCell>
        <mxCell id="YxDH78quZ-EtWejgUxgi-272" value="&lt;font style=&quot;font-size: 17px;&quot;&gt;Model&lt;/font&gt;" style="ellipse;whiteSpace=wrap;html=1;" parent="1" vertex="1">
          <mxGeometry x="3123" y="-262" width="120" height="80" as="geometry" />
        </mxCell>
        <mxCell id="YxDH78quZ-EtWejgUxgi-303" style="edgeStyle=orthogonalEdgeStyle;rounded=0;orthogonalLoop=1;jettySize=auto;html=1;exitX=0;exitY=0.5;exitDx=0;exitDy=0;entryX=1;entryY=0;entryDx=0;entryDy=0;" parent="1" source="YxDH78quZ-EtWejgUxgi-273" target="YxDH78quZ-EtWejgUxgi-201" edge="1">
          <mxGeometry relative="1" as="geometry" />
        </mxCell>
        <mxCell id="YxDH78quZ-EtWejgUxgi-273" value="&lt;font style=&quot;font-size: 17px;&quot;&gt;Color&lt;/font&gt;" style="ellipse;whiteSpace=wrap;html=1;" parent="1" vertex="1">
          <mxGeometry x="3087" y="-360" width="117" height="80" as="geometry" />
        </mxCell>
        <mxCell id="YxDH78quZ-EtWejgUxgi-299" style="edgeStyle=orthogonalEdgeStyle;rounded=0;orthogonalLoop=1;jettySize=auto;html=1;exitX=0.5;exitY=1;exitDx=0;exitDy=0;entryX=0.5;entryY=0;entryDx=0;entryDy=0;" parent="1" source="YxDH78quZ-EtWejgUxgi-274" target="YxDH78quZ-EtWejgUxgi-201" edge="1">
          <mxGeometry relative="1" as="geometry" />
        </mxCell>
        <mxCell id="YxDH78quZ-EtWejgUxgi-274" value="&lt;font style=&quot;font-size: 17px;&quot;&gt;Reg_No&lt;/font&gt;" style="ellipse;whiteSpace=wrap;html=1;" parent="1" vertex="1">
          <mxGeometry x="2745.5" y="-515" width="120" height="80" as="geometry" />
        </mxCell>
        <mxCell id="YxDH78quZ-EtWejgUxgi-298" style="edgeStyle=orthogonalEdgeStyle;rounded=0;orthogonalLoop=1;jettySize=auto;html=1;exitX=1;exitY=1;exitDx=0;exitDy=0;entryX=0.25;entryY=0;entryDx=0;entryDy=0;" parent="1" source="YxDH78quZ-EtWejgUxgi-275" target="YxDH78quZ-EtWejgUxgi-201" edge="1">
          <mxGeometry relative="1" as="geometry" />
        </mxCell>
        <mxCell id="YxDH78quZ-EtWejgUxgi-275" value="&lt;font style=&quot;font-size: 17px;&quot;&gt;Driver_Id&lt;/font&gt;&lt;div&gt;&lt;font style=&quot;font-size: 17px;&quot;&gt;(FK)&lt;/font&gt;&lt;/div&gt;" style="ellipse;whiteSpace=wrap;html=1;" parent="1" vertex="1">
          <mxGeometry x="2608" y="-376" width="120" height="80" as="geometry" />
        </mxCell>
        <mxCell id="YxDH78quZ-EtWejgUxgi-306" value="&lt;u&gt;&lt;font style=&quot;font-size: 17px;&quot;&gt;Cab_Id&lt;/font&gt;&lt;/u&gt;" style="ellipse;whiteSpace=wrap;html=1;" parent="1" vertex="1">
          <mxGeometry x="3090" y="-24" width="120" height="80" as="geometry" />
        </mxCell>
        <mxCell id="YxDH78quZ-EtWejgUxgi-307" style="edgeStyle=orthogonalEdgeStyle;rounded=0;orthogonalLoop=1;jettySize=auto;html=1;exitX=0;exitY=0.5;exitDx=0;exitDy=0;entryX=0.85;entryY=1.01;entryDx=0;entryDy=0;entryPerimeter=0;" parent="1" source="YxDH78quZ-EtWejgUxgi-306" target="YxDH78quZ-EtWejgUxgi-201" edge="1">
          <mxGeometry relative="1" as="geometry" />
        </mxCell>
        <mxCell id="YxDH78quZ-EtWejgUxgi-314" style="edgeStyle=orthogonalEdgeStyle;rounded=0;orthogonalLoop=1;jettySize=auto;html=1;exitX=0;exitY=0.5;exitDx=0;exitDy=0;entryX=0.75;entryY=0;entryDx=0;entryDy=0;" parent="1" source="YxDH78quZ-EtWejgUxgi-308" target="YxDH78quZ-EtWejgUxgi-199" edge="1">
          <mxGeometry relative="1" as="geometry" />
        </mxCell>
        <mxCell id="YxDH78quZ-EtWejgUxgi-308" value="&lt;u&gt;&lt;font style=&quot;font-size: 17px;&quot;&gt;Customer_ID&lt;/font&gt;&lt;/u&gt;" style="ellipse;whiteSpace=wrap;html=1;" parent="1" vertex="1">
          <mxGeometry x="2184" y="-92" width="104" height="73" as="geometry" />
        </mxCell>
        <mxCell id="YxDH78quZ-EtWejgUxgi-315" style="edgeStyle=orthogonalEdgeStyle;rounded=0;orthogonalLoop=1;jettySize=auto;html=1;exitX=0;exitY=0.5;exitDx=0;exitDy=0;entryX=0.5;entryY=1;entryDx=0;entryDy=0;" parent="1" source="YxDH78quZ-EtWejgUxgi-309" target="YxDH78quZ-EtWejgUxgi-199" edge="1">
          <mxGeometry relative="1" as="geometry" />
        </mxCell>
        <mxCell id="YxDH78quZ-EtWejgUxgi-309" value="&lt;font style=&quot;font-size: 17px;&quot;&gt;Ride_Id&lt;br&gt;(FK)&lt;/font&gt;" style="ellipse;whiteSpace=wrap;html=1;" parent="1" vertex="1">
          <mxGeometry x="2188" y="77" width="120" height="80" as="geometry" />
        </mxCell>
        <mxCell id="YxDH78quZ-EtWejgUxgi-312" style="edgeStyle=orthogonalEdgeStyle;rounded=0;orthogonalLoop=1;jettySize=auto;html=1;exitX=0.5;exitY=1;exitDx=0;exitDy=0;" parent="1" source="YxDH78quZ-EtWejgUxgi-310" target="YxDH78quZ-EtWejgUxgi-199" edge="1">
          <mxGeometry relative="1" as="geometry" />
        </mxCell>
        <mxCell id="YxDH78quZ-EtWejgUxgi-310" value="&lt;font style=&quot;font-size: 17px;&quot;&gt;User_Id&lt;br&gt;(FK)&lt;/font&gt;" style="ellipse;whiteSpace=wrap;html=1;" parent="1" vertex="1">
          <mxGeometry x="2068" y="-176" width="102" height="81" as="geometry" />
        </mxCell>
        <mxCell id="YxDH78quZ-EtWejgUxgi-321" style="edgeStyle=orthogonalEdgeStyle;rounded=0;orthogonalLoop=1;jettySize=auto;html=1;exitX=1;exitY=0;exitDx=0;exitDy=0;entryX=0;entryY=0.75;entryDx=0;entryDy=0;" parent="1" source="YxDH78quZ-EtWejgUxgi-316" target="YxDH78quZ-EtWejgUxgi-200" edge="1">
          <mxGeometry relative="1" as="geometry" />
        </mxCell>
        <mxCell id="YxDH78quZ-EtWejgUxgi-316" value="&lt;font style=&quot;font-size: 17px;&quot;&gt;User_Id&lt;br&gt;(FK)&lt;/font&gt;" style="ellipse;whiteSpace=wrap;html=1;" parent="1" vertex="1">
          <mxGeometry x="1908" y="243" width="120" height="80" as="geometry" />
        </mxCell>
        <mxCell id="YxDH78quZ-EtWejgUxgi-317" value="&lt;u&gt;&lt;font style=&quot;font-size: 17px;&quot;&gt;Driver_Id&lt;/font&gt;&lt;/u&gt;" style="ellipse;whiteSpace=wrap;html=1;" parent="1" vertex="1">
          <mxGeometry x="2231" y="259" width="120" height="80" as="geometry" />
        </mxCell>
        <mxCell id="YxDH78quZ-EtWejgUxgi-322" style="edgeStyle=orthogonalEdgeStyle;rounded=0;orthogonalLoop=1;jettySize=auto;html=1;exitX=1;exitY=0;exitDx=0;exitDy=0;entryX=0;entryY=1;entryDx=0;entryDy=0;" parent="1" source="YxDH78quZ-EtWejgUxgi-318" target="YxDH78quZ-EtWejgUxgi-200" edge="1">
          <mxGeometry relative="1" as="geometry" />
        </mxCell>
        <mxCell id="YxDH78quZ-EtWejgUxgi-318" value="&lt;font style=&quot;font-size: 17px;&quot;&gt;Cab_Id&lt;br&gt;(FK)&lt;/font&gt;" style="ellipse;whiteSpace=wrap;html=1;" parent="1" vertex="1">
          <mxGeometry x="1922" y="350" width="120" height="80" as="geometry" />
        </mxCell>
        <mxCell id="YxDH78quZ-EtWejgUxgi-323" style="edgeStyle=orthogonalEdgeStyle;rounded=0;orthogonalLoop=1;jettySize=auto;html=1;entryX=0.25;entryY=1;entryDx=0;entryDy=0;" parent="1" source="YxDH78quZ-EtWejgUxgi-319" target="YxDH78quZ-EtWejgUxgi-200" edge="1">
          <mxGeometry relative="1" as="geometry" />
        </mxCell>
        <mxCell id="YxDH78quZ-EtWejgUxgi-319" value="&lt;font style=&quot;font-size: 17px;&quot;&gt;Start_Time&lt;/font&gt;" style="ellipse;whiteSpace=wrap;html=1;" parent="1" vertex="1">
          <mxGeometry x="2046" y="380" width="120" height="80" as="geometry" />
        </mxCell>
        <mxCell id="YxDH78quZ-EtWejgUxgi-324" style="edgeStyle=orthogonalEdgeStyle;rounded=0;orthogonalLoop=1;jettySize=auto;html=1;exitX=0;exitY=0;exitDx=0;exitDy=0;entryX=0.5;entryY=1;entryDx=0;entryDy=0;" parent="1" source="YxDH78quZ-EtWejgUxgi-320" target="YxDH78quZ-EtWejgUxgi-200" edge="1">
          <mxGeometry relative="1" as="geometry" />
        </mxCell>
        <mxCell id="YxDH78quZ-EtWejgUxgi-320" value="&lt;font style=&quot;font-size: 17px;&quot;&gt;End_Time&lt;/font&gt;" style="ellipse;whiteSpace=wrap;html=1;" parent="1" vertex="1">
          <mxGeometry x="2196" y="346" width="120" height="80" as="geometry" />
        </mxCell>
        <mxCell id="YxDH78quZ-EtWejgUxgi-325" style="edgeStyle=orthogonalEdgeStyle;rounded=0;orthogonalLoop=1;jettySize=auto;html=1;exitX=0;exitY=0.5;exitDx=0;exitDy=0;entryX=0.855;entryY=1.007;entryDx=0;entryDy=0;entryPerimeter=0;" parent="1" source="YxDH78quZ-EtWejgUxgi-317" target="YxDH78quZ-EtWejgUxgi-200" edge="1">
          <mxGeometry relative="1" as="geometry" />
        </mxCell>
        <mxCell id="YxDH78quZ-EtWejgUxgi-337" style="edgeStyle=orthogonalEdgeStyle;rounded=0;orthogonalLoop=1;jettySize=auto;html=1;exitX=0;exitY=0.5;exitDx=0;exitDy=0;entryX=1;entryY=0.25;entryDx=0;entryDy=0;" parent="1" source="YxDH78quZ-EtWejgUxgi-326" target="YxDH78quZ-EtWejgUxgi-203" edge="1">
          <mxGeometry relative="1" as="geometry" />
        </mxCell>
        <mxCell id="YxDH78quZ-EtWejgUxgi-326" value="&lt;u&gt;&lt;font style=&quot;font-size: 17px;&quot;&gt;Payment_Id&lt;/font&gt;&lt;/u&gt;" style="ellipse;whiteSpace=wrap;html=1;" parent="1" vertex="1">
          <mxGeometry x="2776" y="686" width="112" height="80" as="geometry" />
        </mxCell>
        <mxCell id="YxDH78quZ-EtWejgUxgi-327" value="&lt;font style=&quot;font-size: 17px;&quot;&gt;Payment_Status&lt;/font&gt;" style="ellipse;whiteSpace=wrap;html=1;" parent="1" vertex="1">
          <mxGeometry x="2192" y="670" width="120" height="80" as="geometry" />
        </mxCell>
        <mxCell id="YxDH78quZ-EtWejgUxgi-332" style="edgeStyle=orthogonalEdgeStyle;rounded=0;orthogonalLoop=1;jettySize=auto;html=1;exitX=0.5;exitY=0;exitDx=0;exitDy=0;entryX=0;entryY=1;entryDx=0;entryDy=0;" parent="1" source="YxDH78quZ-EtWejgUxgi-328" target="YxDH78quZ-EtWejgUxgi-203" edge="1">
          <mxGeometry relative="1" as="geometry" />
        </mxCell>
        <mxCell id="YxDH78quZ-EtWejgUxgi-328" value="&lt;font style=&quot;font-size: 17px;&quot;&gt;Payment_Type&lt;/font&gt;" style="ellipse;whiteSpace=wrap;html=1;" parent="1" vertex="1">
          <mxGeometry x="2318" y="820" width="120" height="80" as="geometry" />
        </mxCell>
        <mxCell id="YxDH78quZ-EtWejgUxgi-333" style="edgeStyle=orthogonalEdgeStyle;rounded=0;orthogonalLoop=1;jettySize=auto;html=1;exitX=0;exitY=0;exitDx=0;exitDy=0;entryX=0.5;entryY=1;entryDx=0;entryDy=0;" parent="1" source="YxDH78quZ-EtWejgUxgi-329" target="YxDH78quZ-EtWejgUxgi-203" edge="1">
          <mxGeometry relative="1" as="geometry" />
        </mxCell>
        <mxCell id="YxDH78quZ-EtWejgUxgi-329" value="&lt;font style=&quot;font-size: 17px;&quot;&gt;Ride_Id&lt;br&gt;(FK)&lt;/font&gt;" style="ellipse;whiteSpace=wrap;html=1;" parent="1" vertex="1">
          <mxGeometry x="2479" y="817" width="120" height="80" as="geometry" />
        </mxCell>
        <mxCell id="YxDH78quZ-EtWejgUxgi-334" style="edgeStyle=orthogonalEdgeStyle;rounded=0;orthogonalLoop=1;jettySize=auto;html=1;exitX=0;exitY=0;exitDx=0;exitDy=0;entryX=1;entryY=0.75;entryDx=0;entryDy=0;" parent="1" source="YxDH78quZ-EtWejgUxgi-330" target="YxDH78quZ-EtWejgUxgi-203" edge="1">
          <mxGeometry relative="1" as="geometry" />
        </mxCell>
        <mxCell id="YxDH78quZ-EtWejgUxgi-330" value="&lt;font style=&quot;font-size: 17px;&quot;&gt;Customer_Id&lt;br&gt;(FK)&lt;/font&gt;" style="ellipse;whiteSpace=wrap;html=1;" parent="1" vertex="1">
          <mxGeometry x="2660" y="766" width="109" height="80" as="geometry" />
        </mxCell>
        <mxCell id="YxDH78quZ-EtWejgUxgi-350" style="edgeStyle=orthogonalEdgeStyle;rounded=0;orthogonalLoop=1;jettySize=auto;html=1;exitX=0;exitY=0;exitDx=0;exitDy=0;entryX=1;entryY=0.75;entryDx=0;entryDy=0;" parent="1" source="YxDH78quZ-EtWejgUxgi-338" target="YxDH78quZ-EtWejgUxgi-202" edge="1">
          <mxGeometry relative="1" as="geometry" />
        </mxCell>
        <mxCell id="YxDH78quZ-EtWejgUxgi-338" value="Booking_Status" style="ellipse;whiteSpace=wrap;html=1;" parent="1" vertex="1">
          <mxGeometry x="2623" y="244" width="90" height="68" as="geometry" />
        </mxCell>
        <mxCell id="YxDH78quZ-EtWejgUxgi-355" style="edgeStyle=orthogonalEdgeStyle;rounded=0;orthogonalLoop=1;jettySize=auto;html=1;exitX=0.5;exitY=1;exitDx=0;exitDy=0;entryX=0.25;entryY=0;entryDx=0;entryDy=0;" parent="1" source="YxDH78quZ-EtWejgUxgi-339" target="YxDH78quZ-EtWejgUxgi-202" edge="1">
          <mxGeometry relative="1" as="geometry" />
        </mxCell>
        <mxCell id="YxDH78quZ-EtWejgUxgi-339" value="Distance" style="ellipse;whiteSpace=wrap;html=1;" parent="1" vertex="1">
          <mxGeometry x="2386" y="93" width="68" height="59" as="geometry" />
        </mxCell>
        <mxCell id="YxDH78quZ-EtWejgUxgi-353" style="edgeStyle=orthogonalEdgeStyle;rounded=0;orthogonalLoop=1;jettySize=auto;html=1;exitX=0.5;exitY=0;exitDx=0;exitDy=0;entryX=0.75;entryY=1;entryDx=0;entryDy=0;" parent="1" source="YxDH78quZ-EtWejgUxgi-340" target="YxDH78quZ-EtWejgUxgi-202" edge="1">
          <mxGeometry relative="1" as="geometry" />
        </mxCell>
        <mxCell id="YxDH78quZ-EtWejgUxgi-340" value="Fare" style="ellipse;whiteSpace=wrap;html=1;" parent="1" vertex="1">
          <mxGeometry x="2562" y="407" width="86" height="62" as="geometry" />
        </mxCell>
        <mxCell id="YxDH78quZ-EtWejgUxgi-341" value="Rating" style="ellipse;whiteSpace=wrap;html=1;" parent="1" vertex="1">
          <mxGeometry x="2374" y="272.15" width="80" height="66.85" as="geometry" />
        </mxCell>
        <mxCell id="YxDH78quZ-EtWejgUxgi-351" style="edgeStyle=orthogonalEdgeStyle;rounded=0;orthogonalLoop=1;jettySize=auto;html=1;exitX=0;exitY=0;exitDx=0;exitDy=0;entryX=1;entryY=1;entryDx=0;entryDy=0;" parent="1" source="YxDH78quZ-EtWejgUxgi-342" target="YxDH78quZ-EtWejgUxgi-202" edge="1">
          <mxGeometry relative="1" as="geometry" />
        </mxCell>
        <mxCell id="YxDH78quZ-EtWejgUxgi-342" value="Drop_Location" style="ellipse;whiteSpace=wrap;html=1;" parent="1" vertex="1">
          <mxGeometry x="2630" y="326" width="76" height="64" as="geometry" />
        </mxCell>
        <mxCell id="YxDH78quZ-EtWejgUxgi-349" style="edgeStyle=orthogonalEdgeStyle;rounded=0;orthogonalLoop=1;jettySize=auto;html=1;exitX=0;exitY=0.5;exitDx=0;exitDy=0;entryX=1;entryY=0.25;entryDx=0;entryDy=0;" parent="1" source="YxDH78quZ-EtWejgUxgi-343" target="YxDH78quZ-EtWejgUxgi-202" edge="1">
          <mxGeometry relative="1" as="geometry" />
        </mxCell>
        <mxCell id="YxDH78quZ-EtWejgUxgi-343" value="Pickup_Location" style="ellipse;whiteSpace=wrap;html=1;rotation=0;" parent="1" vertex="1">
          <mxGeometry x="2668" y="102" width="99" height="70" as="geometry" />
        </mxCell>
        <mxCell id="YxDH78quZ-EtWejgUxgi-348" style="edgeStyle=orthogonalEdgeStyle;rounded=0;orthogonalLoop=1;jettySize=auto;html=1;exitX=0;exitY=0.5;exitDx=0;exitDy=0;entryX=1;entryY=0;entryDx=0;entryDy=0;" parent="1" source="YxDH78quZ-EtWejgUxgi-344" target="YxDH78quZ-EtWejgUxgi-202" edge="1">
          <mxGeometry relative="1" as="geometry" />
        </mxCell>
        <mxCell id="YxDH78quZ-EtWejgUxgi-344" value="Cab_Id&lt;br&gt;(FK)" style="ellipse;whiteSpace=wrap;html=1;" parent="1" vertex="1">
          <mxGeometry x="2660" y="26" width="99" height="51" as="geometry" />
        </mxCell>
        <mxCell id="YxDH78quZ-EtWejgUxgi-347" style="edgeStyle=orthogonalEdgeStyle;rounded=0;orthogonalLoop=1;jettySize=auto;html=1;exitX=0;exitY=1;exitDx=0;exitDy=0;entryX=0.75;entryY=0;entryDx=0;entryDy=0;" parent="1" source="YxDH78quZ-EtWejgUxgi-345" target="YxDH78quZ-EtWejgUxgi-202" edge="1">
          <mxGeometry relative="1" as="geometry" />
        </mxCell>
        <mxCell id="YxDH78quZ-EtWejgUxgi-345" value="&lt;font style=&quot;font-size: 17px;&quot;&gt;&lt;u&gt;Ride_Id&lt;/u&gt;&lt;/font&gt;" style="ellipse;whiteSpace=wrap;html=1;" parent="1" vertex="1">
          <mxGeometry x="2580" y="-34" width="80" height="54" as="geometry" />
        </mxCell>
        <mxCell id="YxDH78quZ-EtWejgUxgi-352" style="edgeStyle=orthogonalEdgeStyle;rounded=0;orthogonalLoop=1;jettySize=auto;html=1;exitX=0.5;exitY=0;exitDx=0;exitDy=0;entryX=0.151;entryY=0.984;entryDx=0;entryDy=0;entryPerimeter=0;" parent="1" source="YxDH78quZ-EtWejgUxgi-341" target="YxDH78quZ-EtWejgUxgi-202" edge="1">
          <mxGeometry relative="1" as="geometry" />
        </mxCell>
        <mxCell id="YxDH78quZ-EtWejgUxgi-357" value="&lt;font style=&quot;font-size: 17px;&quot;&gt;1&lt;/font&gt;" style="text;html=1;align=center;verticalAlign=middle;resizable=0;points=[];autosize=1;strokeColor=none;fillColor=none;" parent="1" vertex="1">
          <mxGeometry x="1774" y="-7" width="27" height="32" as="geometry" />
        </mxCell>
        <mxCell id="YxDH78quZ-EtWejgUxgi-358" value="&lt;font style=&quot;font-size: 17px;&quot;&gt;n&lt;/font&gt;" style="text;html=1;align=center;verticalAlign=middle;resizable=0;points=[];autosize=1;strokeColor=none;fillColor=none;" parent="1" vertex="1">
          <mxGeometry x="1980" y="-9" width="27" height="32" as="geometry" />
        </mxCell>
        <mxCell id="YxDH78quZ-EtWejgUxgi-359" value="&lt;font style=&quot;font-size: 17px;&quot;&gt;1&lt;/font&gt;" style="text;html=1;align=center;verticalAlign=middle;resizable=0;points=[];autosize=1;strokeColor=none;fillColor=none;" parent="1" vertex="1">
          <mxGeometry x="2275" y="-234" width="27" height="32" as="geometry" />
        </mxCell>
        <mxCell id="YxDH78quZ-EtWejgUxgi-360" value="&lt;font style=&quot;font-size: 17px;&quot;&gt;n&lt;/font&gt;" style="text;html=1;align=center;verticalAlign=middle;resizable=0;points=[];autosize=1;strokeColor=none;fillColor=none;" parent="1" vertex="1">
          <mxGeometry x="2532" y="-206" width="27" height="32" as="geometry" />
        </mxCell>
        <mxCell id="YxDH78quZ-EtWejgUxgi-361" value="&lt;font style=&quot;font-size: 17px;&quot;&gt;1&lt;/font&gt;" style="text;html=1;align=center;verticalAlign=middle;resizable=0;points=[];autosize=1;strokeColor=none;fillColor=none;" parent="1" vertex="1">
          <mxGeometry x="2293" y="-7" width="27" height="32" as="geometry" />
        </mxCell>
        <mxCell id="YxDH78quZ-EtWejgUxgi-362" value="&lt;font style=&quot;font-size: 17px;&quot;&gt;n&lt;/font&gt;" style="text;html=1;align=center;verticalAlign=middle;resizable=0;points=[];autosize=1;strokeColor=none;fillColor=none;" parent="1" vertex="1">
          <mxGeometry x="2475" y="77" width="27" height="32" as="geometry" />
        </mxCell>
        <mxCell id="YxDH78quZ-EtWejgUxgi-363" value="&lt;font style=&quot;font-size: 17px;&quot;&gt;1&lt;/font&gt;" style="text;html=1;align=center;verticalAlign=middle;resizable=0;points=[];autosize=1;strokeColor=none;fillColor=none;" parent="1" vertex="1">
          <mxGeometry x="2524" y="604" width="27" height="32" as="geometry" />
        </mxCell>
        <mxCell id="YxDH78quZ-EtWejgUxgi-364" value="&lt;font style=&quot;font-size: 17px;&quot;&gt;1&lt;/font&gt;" style="text;html=1;align=center;verticalAlign=middle;resizable=0;points=[];autosize=1;strokeColor=none;fillColor=none;" parent="1" vertex="1">
          <mxGeometry x="2523" y="432" width="27" height="32" as="geometry" />
        </mxCell>
        <mxCell id="YxDH78quZ-EtWejgUxgi-365" value="&lt;font style=&quot;font-size: 17px;&quot;&gt;1&lt;/font&gt;" style="text;html=1;align=center;verticalAlign=middle;resizable=0;points=[];autosize=1;strokeColor=none;fillColor=none;" parent="1" vertex="1">
          <mxGeometry x="2830" y="250" width="27" height="32" as="geometry" />
        </mxCell>
        <mxCell id="YxDH78quZ-EtWejgUxgi-366" value="&lt;font style=&quot;font-size: 17px;&quot;&gt;1&lt;/font&gt;" style="text;html=1;align=center;verticalAlign=middle;resizable=0;points=[];autosize=1;strokeColor=none;fillColor=none;" parent="1" vertex="1">
          <mxGeometry x="3048" y="106" width="27" height="32" as="geometry" />
        </mxCell>
        <mxCell id="YxDH78quZ-EtWejgUxgi-367" value="&lt;font style=&quot;font-size: 17px;&quot;&gt;1&lt;/font&gt;" style="text;html=1;align=center;verticalAlign=middle;resizable=0;points=[];autosize=1;strokeColor=none;fillColor=none;" parent="1" vertex="1">
          <mxGeometry x="2310" y="156" width="27" height="32" as="geometry" />
        </mxCell>
        <mxCell id="YxDH78quZ-EtWejgUxgi-368" value="&lt;font style=&quot;font-size: 17px;&quot;&gt;1&lt;/font&gt;" style="text;html=1;align=center;verticalAlign=middle;resizable=0;points=[];autosize=1;strokeColor=none;fillColor=none;" parent="1" vertex="1">
          <mxGeometry x="2573" y="-88" width="27" height="32" as="geometry" />
        </mxCell>
        <mxCell id="oKJhpVfzUX_Z_Kkq6TDM-17" value="&lt;span style=&quot;font-size: 17px;&quot;&gt;admin_cab_owners&lt;/span&gt;" style="shape=table;startSize=30;container=1;collapsible=1;childLayout=tableLayout;fixedRows=1;rowLines=0;fontStyle=1;align=center;resizeLast=1;html=1;" vertex="1" parent="1">
          <mxGeometry x="-353" y="-544" width="180" height="120" as="geometry" />
        </mxCell>
        <mxCell id="oKJhpVfzUX_Z_Kkq6TDM-18" value="" style="shape=tableRow;horizontal=0;startSize=0;swimlaneHead=0;swimlaneBody=0;fillColor=none;collapsible=0;dropTarget=0;points=[[0,0.5],[1,0.5]];portConstraint=eastwest;top=0;left=0;right=0;bottom=1;" vertex="1" parent="oKJhpVfzUX_Z_Kkq6TDM-17">
          <mxGeometry y="30" width="180" height="30" as="geometry" />
        </mxCell>
        <mxCell id="oKJhpVfzUX_Z_Kkq6TDM-19" value="PK" style="shape=partialRectangle;connectable=0;fillColor=none;top=0;left=0;bottom=0;right=0;fontStyle=1;overflow=hidden;whiteSpace=wrap;html=1;" vertex="1" parent="oKJhpVfzUX_Z_Kkq6TDM-18">
          <mxGeometry width="30" height="30" as="geometry">
            <mxRectangle width="30" height="30" as="alternateBounds" />
          </mxGeometry>
        </mxCell>
        <mxCell id="oKJhpVfzUX_Z_Kkq6TDM-20" value="ID" style="shape=partialRectangle;connectable=0;fillColor=none;top=0;left=0;bottom=0;right=0;align=left;spacingLeft=6;fontStyle=5;overflow=hidden;whiteSpace=wrap;html=1;" vertex="1" parent="oKJhpVfzUX_Z_Kkq6TDM-18">
          <mxGeometry x="30" width="150" height="30" as="geometry">
            <mxRectangle width="150" height="30" as="alternateBounds" />
          </mxGeometry>
        </mxCell>
        <mxCell id="oKJhpVfzUX_Z_Kkq6TDM-21" value="" style="shape=tableRow;horizontal=0;startSize=0;swimlaneHead=0;swimlaneBody=0;fillColor=none;collapsible=0;dropTarget=0;points=[[0,0.5],[1,0.5]];portConstraint=eastwest;top=0;left=0;right=0;bottom=0;" vertex="1" parent="oKJhpVfzUX_Z_Kkq6TDM-17">
          <mxGeometry y="60" width="180" height="30" as="geometry" />
        </mxCell>
        <mxCell id="oKJhpVfzUX_Z_Kkq6TDM-22" value="FK" style="shape=partialRectangle;connectable=0;fillColor=none;top=0;left=0;bottom=0;right=0;editable=1;overflow=hidden;whiteSpace=wrap;html=1;" vertex="1" parent="oKJhpVfzUX_Z_Kkq6TDM-21">
          <mxGeometry width="30" height="30" as="geometry">
            <mxRectangle width="30" height="30" as="alternateBounds" />
          </mxGeometry>
        </mxCell>
        <mxCell id="oKJhpVfzUX_Z_Kkq6TDM-23" value="&lt;font style=&quot;font-size: 17px;&quot;&gt;Admin_Id&lt;/font&gt;" style="shape=partialRectangle;connectable=0;fillColor=none;top=0;left=0;bottom=0;right=0;align=left;spacingLeft=6;overflow=hidden;whiteSpace=wrap;html=1;" vertex="1" parent="oKJhpVfzUX_Z_Kkq6TDM-21">
          <mxGeometry x="30" width="150" height="30" as="geometry">
            <mxRectangle width="150" height="30" as="alternateBounds" />
          </mxGeometry>
        </mxCell>
        <mxCell id="oKJhpVfzUX_Z_Kkq6TDM-24" value="" style="shape=tableRow;horizontal=0;startSize=0;swimlaneHead=0;swimlaneBody=0;fillColor=none;collapsible=0;dropTarget=0;points=[[0,0.5],[1,0.5]];portConstraint=eastwest;top=0;left=0;right=0;bottom=0;" vertex="1" parent="oKJhpVfzUX_Z_Kkq6TDM-17">
          <mxGeometry y="90" width="180" height="30" as="geometry" />
        </mxCell>
        <mxCell id="oKJhpVfzUX_Z_Kkq6TDM-25" value="FK" style="shape=partialRectangle;connectable=0;fillColor=none;top=0;left=0;bottom=0;right=0;editable=1;overflow=hidden;whiteSpace=wrap;html=1;" vertex="1" parent="oKJhpVfzUX_Z_Kkq6TDM-24">
          <mxGeometry width="30" height="30" as="geometry">
            <mxRectangle width="30" height="30" as="alternateBounds" />
          </mxGeometry>
        </mxCell>
        <mxCell id="oKJhpVfzUX_Z_Kkq6TDM-26" value="&lt;font style=&quot;font-size: 17px;&quot;&gt;Cab_Id&lt;/font&gt;" style="shape=partialRectangle;connectable=0;fillColor=none;top=0;left=0;bottom=0;right=0;align=left;spacingLeft=6;overflow=hidden;whiteSpace=wrap;html=1;" vertex="1" parent="oKJhpVfzUX_Z_Kkq6TDM-24">
          <mxGeometry x="30" width="150" height="30" as="geometry">
            <mxRectangle width="150" height="30" as="alternateBounds" />
          </mxGeometry>
        </mxCell>
        <mxCell id="oKJhpVfzUX_Z_Kkq6TDM-30" value="&lt;font style=&quot;font-size: 17px;&quot;&gt;driver_cab_owners&lt;/font&gt;" style="shape=table;startSize=30;container=1;collapsible=1;childLayout=tableLayout;fixedRows=1;rowLines=0;fontStyle=1;align=center;resizeLast=1;html=1;" vertex="1" parent="1">
          <mxGeometry x="-363" y="-291" width="180" height="120" as="geometry" />
        </mxCell>
        <mxCell id="oKJhpVfzUX_Z_Kkq6TDM-31" value="" style="shape=tableRow;horizontal=0;startSize=0;swimlaneHead=0;swimlaneBody=0;fillColor=none;collapsible=0;dropTarget=0;points=[[0,0.5],[1,0.5]];portConstraint=eastwest;top=0;left=0;right=0;bottom=1;" vertex="1" parent="oKJhpVfzUX_Z_Kkq6TDM-30">
          <mxGeometry y="30" width="180" height="30" as="geometry" />
        </mxCell>
        <mxCell id="oKJhpVfzUX_Z_Kkq6TDM-32" value="PK" style="shape=partialRectangle;connectable=0;fillColor=none;top=0;left=0;bottom=0;right=0;fontStyle=1;overflow=hidden;whiteSpace=wrap;html=1;" vertex="1" parent="oKJhpVfzUX_Z_Kkq6TDM-31">
          <mxGeometry width="30" height="30" as="geometry">
            <mxRectangle width="30" height="30" as="alternateBounds" />
          </mxGeometry>
        </mxCell>
        <mxCell id="oKJhpVfzUX_Z_Kkq6TDM-33" value="ID" style="shape=partialRectangle;connectable=0;fillColor=none;top=0;left=0;bottom=0;right=0;align=left;spacingLeft=6;fontStyle=5;overflow=hidden;whiteSpace=wrap;html=1;" vertex="1" parent="oKJhpVfzUX_Z_Kkq6TDM-31">
          <mxGeometry x="30" width="150" height="30" as="geometry">
            <mxRectangle width="150" height="30" as="alternateBounds" />
          </mxGeometry>
        </mxCell>
        <mxCell id="oKJhpVfzUX_Z_Kkq6TDM-34" value="" style="shape=tableRow;horizontal=0;startSize=0;swimlaneHead=0;swimlaneBody=0;fillColor=none;collapsible=0;dropTarget=0;points=[[0,0.5],[1,0.5]];portConstraint=eastwest;top=0;left=0;right=0;bottom=0;" vertex="1" parent="oKJhpVfzUX_Z_Kkq6TDM-30">
          <mxGeometry y="60" width="180" height="30" as="geometry" />
        </mxCell>
        <mxCell id="oKJhpVfzUX_Z_Kkq6TDM-35" value="&lt;font style=&quot;font-size: 17px;&quot;&gt;FK&lt;/font&gt;" style="shape=partialRectangle;connectable=0;fillColor=none;top=0;left=0;bottom=0;right=0;editable=1;overflow=hidden;whiteSpace=wrap;html=1;" vertex="1" parent="oKJhpVfzUX_Z_Kkq6TDM-34">
          <mxGeometry width="30" height="30" as="geometry">
            <mxRectangle width="30" height="30" as="alternateBounds" />
          </mxGeometry>
        </mxCell>
        <mxCell id="oKJhpVfzUX_Z_Kkq6TDM-36" value="&lt;font style=&quot;font-size: 17px;&quot;&gt;Driver_Id&lt;/font&gt;" style="shape=partialRectangle;connectable=0;fillColor=none;top=0;left=0;bottom=0;right=0;align=left;spacingLeft=6;overflow=hidden;whiteSpace=wrap;html=1;" vertex="1" parent="oKJhpVfzUX_Z_Kkq6TDM-34">
          <mxGeometry x="30" width="150" height="30" as="geometry">
            <mxRectangle width="150" height="30" as="alternateBounds" />
          </mxGeometry>
        </mxCell>
        <mxCell id="oKJhpVfzUX_Z_Kkq6TDM-37" value="" style="shape=tableRow;horizontal=0;startSize=0;swimlaneHead=0;swimlaneBody=0;fillColor=none;collapsible=0;dropTarget=0;points=[[0,0.5],[1,0.5]];portConstraint=eastwest;top=0;left=0;right=0;bottom=0;" vertex="1" parent="oKJhpVfzUX_Z_Kkq6TDM-30">
          <mxGeometry y="90" width="180" height="30" as="geometry" />
        </mxCell>
        <mxCell id="oKJhpVfzUX_Z_Kkq6TDM-38" value="&lt;font style=&quot;font-size: 17px;&quot;&gt;FK&lt;/font&gt;" style="shape=partialRectangle;connectable=0;fillColor=none;top=0;left=0;bottom=0;right=0;editable=1;overflow=hidden;whiteSpace=wrap;html=1;" vertex="1" parent="oKJhpVfzUX_Z_Kkq6TDM-37">
          <mxGeometry width="30" height="30" as="geometry">
            <mxRectangle width="30" height="30" as="alternateBounds" />
          </mxGeometry>
        </mxCell>
        <mxCell id="oKJhpVfzUX_Z_Kkq6TDM-39" value="&lt;font style=&quot;font-size: 17px;&quot;&gt;Cab_Id&lt;/font&gt;" style="shape=partialRectangle;connectable=0;fillColor=none;top=0;left=0;bottom=0;right=0;align=left;spacingLeft=6;overflow=hidden;whiteSpace=wrap;html=1;" vertex="1" parent="oKJhpVfzUX_Z_Kkq6TDM-37">
          <mxGeometry x="30" width="150" height="30" as="geometry">
            <mxRectangle width="150" height="30" as="alternateBounds" />
          </mxGeometry>
        </mxCell>
        <mxCell id="oKJhpVfzUX_Z_Kkq6TDM-69" value="&lt;font style=&quot;font-size: 17px;&quot;&gt;driver_operations&lt;/font&gt;" style="shape=table;startSize=30;container=1;collapsible=1;childLayout=tableLayout;fixedRows=1;rowLines=0;fontStyle=1;align=center;resizeLast=1;html=1;" vertex="1" parent="1">
          <mxGeometry x="-199" y="-100" width="229" height="180" as="geometry" />
        </mxCell>
        <mxCell id="oKJhpVfzUX_Z_Kkq6TDM-70" value="" style="shape=tableRow;horizontal=0;startSize=0;swimlaneHead=0;swimlaneBody=0;fillColor=none;collapsible=0;dropTarget=0;points=[[0,0.5],[1,0.5]];portConstraint=eastwest;top=0;left=0;right=0;bottom=1;" vertex="1" parent="oKJhpVfzUX_Z_Kkq6TDM-69">
          <mxGeometry y="30" width="229" height="30" as="geometry" />
        </mxCell>
        <mxCell id="oKJhpVfzUX_Z_Kkq6TDM-71" value="PK" style="shape=partialRectangle;connectable=0;fillColor=none;top=0;left=0;bottom=0;right=0;fontStyle=1;overflow=hidden;whiteSpace=wrap;html=1;" vertex="1" parent="oKJhpVfzUX_Z_Kkq6TDM-70">
          <mxGeometry width="30" height="30" as="geometry">
            <mxRectangle width="30" height="30" as="alternateBounds" />
          </mxGeometry>
        </mxCell>
        <mxCell id="oKJhpVfzUX_Z_Kkq6TDM-72" value="ID" style="shape=partialRectangle;connectable=0;fillColor=none;top=0;left=0;bottom=0;right=0;align=left;spacingLeft=6;fontStyle=5;overflow=hidden;whiteSpace=wrap;html=1;" vertex="1" parent="oKJhpVfzUX_Z_Kkq6TDM-70">
          <mxGeometry x="30" width="199" height="30" as="geometry">
            <mxRectangle width="199" height="30" as="alternateBounds" />
          </mxGeometry>
        </mxCell>
        <mxCell id="oKJhpVfzUX_Z_Kkq6TDM-73" value="" style="shape=tableRow;horizontal=0;startSize=0;swimlaneHead=0;swimlaneBody=0;fillColor=none;collapsible=0;dropTarget=0;points=[[0,0.5],[1,0.5]];portConstraint=eastwest;top=0;left=0;right=0;bottom=0;" vertex="1" parent="oKJhpVfzUX_Z_Kkq6TDM-69">
          <mxGeometry y="60" width="229" height="30" as="geometry" />
        </mxCell>
        <mxCell id="oKJhpVfzUX_Z_Kkq6TDM-74" value="&lt;font style=&quot;font-size: 17px;&quot;&gt;FK&lt;/font&gt;" style="shape=partialRectangle;connectable=0;fillColor=none;top=0;left=0;bottom=0;right=0;editable=1;overflow=hidden;whiteSpace=wrap;html=1;" vertex="1" parent="oKJhpVfzUX_Z_Kkq6TDM-73">
          <mxGeometry width="30" height="30" as="geometry">
            <mxRectangle width="30" height="30" as="alternateBounds" />
          </mxGeometry>
        </mxCell>
        <mxCell id="oKJhpVfzUX_Z_Kkq6TDM-75" value="&lt;font style=&quot;font-size: 17px;&quot;&gt;Driver_Id&lt;/font&gt;" style="shape=partialRectangle;connectable=0;fillColor=none;top=0;left=0;bottom=0;right=0;align=left;spacingLeft=6;overflow=hidden;whiteSpace=wrap;html=1;" vertex="1" parent="oKJhpVfzUX_Z_Kkq6TDM-73">
          <mxGeometry x="30" width="199" height="30" as="geometry">
            <mxRectangle width="199" height="30" as="alternateBounds" />
          </mxGeometry>
        </mxCell>
        <mxCell id="oKJhpVfzUX_Z_Kkq6TDM-76" value="" style="shape=tableRow;horizontal=0;startSize=0;swimlaneHead=0;swimlaneBody=0;fillColor=none;collapsible=0;dropTarget=0;points=[[0,0.5],[1,0.5]];portConstraint=eastwest;top=0;left=0;right=0;bottom=0;" vertex="1" parent="oKJhpVfzUX_Z_Kkq6TDM-69">
          <mxGeometry y="90" width="229" height="30" as="geometry" />
        </mxCell>
        <mxCell id="oKJhpVfzUX_Z_Kkq6TDM-77" value="&lt;font style=&quot;font-size: 17px;&quot;&gt;FK&lt;/font&gt;" style="shape=partialRectangle;connectable=0;fillColor=none;top=0;left=0;bottom=0;right=0;editable=1;overflow=hidden;whiteSpace=wrap;html=1;" vertex="1" parent="oKJhpVfzUX_Z_Kkq6TDM-76">
          <mxGeometry width="30" height="30" as="geometry">
            <mxRectangle width="30" height="30" as="alternateBounds" />
          </mxGeometry>
        </mxCell>
        <mxCell id="oKJhpVfzUX_Z_Kkq6TDM-78" value="&lt;font style=&quot;font-size: 17px;&quot;&gt;Cab_Id&lt;/font&gt;" style="shape=partialRectangle;connectable=0;fillColor=none;top=0;left=0;bottom=0;right=0;align=left;spacingLeft=6;overflow=hidden;whiteSpace=wrap;html=1;" vertex="1" parent="oKJhpVfzUX_Z_Kkq6TDM-76">
          <mxGeometry x="30" width="199" height="30" as="geometry">
            <mxRectangle width="199" height="30" as="alternateBounds" />
          </mxGeometry>
        </mxCell>
        <mxCell id="oKJhpVfzUX_Z_Kkq6TDM-79" value="" style="shape=tableRow;horizontal=0;startSize=0;swimlaneHead=0;swimlaneBody=0;fillColor=none;collapsible=0;dropTarget=0;points=[[0,0.5],[1,0.5]];portConstraint=eastwest;top=0;left=0;right=0;bottom=0;" vertex="1" parent="oKJhpVfzUX_Z_Kkq6TDM-69">
          <mxGeometry y="120" width="229" height="30" as="geometry" />
        </mxCell>
        <mxCell id="oKJhpVfzUX_Z_Kkq6TDM-80" value="" style="shape=partialRectangle;connectable=0;fillColor=none;top=0;left=0;bottom=0;right=0;editable=1;overflow=hidden;whiteSpace=wrap;html=1;" vertex="1" parent="oKJhpVfzUX_Z_Kkq6TDM-79">
          <mxGeometry width="30" height="30" as="geometry">
            <mxRectangle width="30" height="30" as="alternateBounds" />
          </mxGeometry>
        </mxCell>
        <mxCell id="oKJhpVfzUX_Z_Kkq6TDM-81" value="&lt;font style=&quot;font-size: 17px;&quot;&gt;Start_Time Date&lt;/font&gt;" style="shape=partialRectangle;connectable=0;fillColor=none;top=0;left=0;bottom=0;right=0;align=left;spacingLeft=6;overflow=hidden;whiteSpace=wrap;html=1;" vertex="1" parent="oKJhpVfzUX_Z_Kkq6TDM-79">
          <mxGeometry x="30" width="199" height="30" as="geometry">
            <mxRectangle width="199" height="30" as="alternateBounds" />
          </mxGeometry>
        </mxCell>
        <mxCell id="oKJhpVfzUX_Z_Kkq6TDM-82" value="" style="shape=tableRow;horizontal=0;startSize=0;swimlaneHead=0;swimlaneBody=0;fillColor=none;collapsible=0;dropTarget=0;points=[[0,0.5],[1,0.5]];portConstraint=eastwest;top=0;left=0;right=0;bottom=0;" vertex="1" parent="oKJhpVfzUX_Z_Kkq6TDM-69">
          <mxGeometry y="150" width="229" height="30" as="geometry" />
        </mxCell>
        <mxCell id="oKJhpVfzUX_Z_Kkq6TDM-83" value="" style="shape=partialRectangle;connectable=0;fillColor=none;top=0;left=0;bottom=0;right=0;editable=1;overflow=hidden;whiteSpace=wrap;html=1;" vertex="1" parent="oKJhpVfzUX_Z_Kkq6TDM-82">
          <mxGeometry width="30" height="30" as="geometry">
            <mxRectangle width="30" height="30" as="alternateBounds" />
          </mxGeometry>
        </mxCell>
        <mxCell id="oKJhpVfzUX_Z_Kkq6TDM-84" value="&lt;font style=&quot;font-size: 17px;&quot;&gt;End_Time Nullable Date&lt;/font&gt;" style="shape=partialRectangle;connectable=0;fillColor=none;top=0;left=0;bottom=0;right=0;align=left;spacingLeft=6;overflow=hidden;whiteSpace=wrap;html=1;" vertex="1" parent="oKJhpVfzUX_Z_Kkq6TDM-82">
          <mxGeometry x="30" width="199" height="30" as="geometry">
            <mxRectangle width="199" height="30" as="alternateBounds" />
          </mxGeometry>
        </mxCell>
        <mxCell id="oKJhpVfzUX_Z_Kkq6TDM-85" style="edgeStyle=orthogonalEdgeStyle;rounded=0;orthogonalLoop=1;jettySize=auto;html=1;exitX=0;exitY=0.5;exitDx=0;exitDy=0;entryX=0;entryY=0.5;entryDx=0;entryDy=0;" edge="1" parent="1" source="YxDH78quZ-EtWejgUxgi-3" target="oKJhpVfzUX_Z_Kkq6TDM-21">
          <mxGeometry relative="1" as="geometry" />
        </mxCell>
        <mxCell id="oKJhpVfzUX_Z_Kkq6TDM-86" style="edgeStyle=orthogonalEdgeStyle;rounded=0;orthogonalLoop=1;jettySize=auto;html=1;exitX=0;exitY=0.5;exitDx=0;exitDy=0;entryX=1;entryY=0.5;entryDx=0;entryDy=0;" edge="1" parent="1" source="YxDH78quZ-EtWejgUxgi-101" target="oKJhpVfzUX_Z_Kkq6TDM-24">
          <mxGeometry relative="1" as="geometry">
            <mxPoint x="-8.7777099609375" y="-441.9166793823242" as="targetPoint" />
          </mxGeometry>
        </mxCell>
        <mxCell id="oKJhpVfzUX_Z_Kkq6TDM-87" style="edgeStyle=orthogonalEdgeStyle;rounded=0;orthogonalLoop=1;jettySize=auto;html=1;exitX=0;exitY=0.5;exitDx=0;exitDy=0;entryX=0;entryY=0.5;entryDx=0;entryDy=0;" edge="1" parent="1" source="YxDH78quZ-EtWejgUxgi-129" target="oKJhpVfzUX_Z_Kkq6TDM-34">
          <mxGeometry relative="1" as="geometry" />
        </mxCell>
        <mxCell id="oKJhpVfzUX_Z_Kkq6TDM-89" style="edgeStyle=orthogonalEdgeStyle;rounded=0;orthogonalLoop=1;jettySize=auto;html=1;exitX=0;exitY=0.5;exitDx=0;exitDy=0;entryX=0;entryY=0.5;entryDx=0;entryDy=0;" edge="1" parent="1" source="YxDH78quZ-EtWejgUxgi-129" target="oKJhpVfzUX_Z_Kkq6TDM-73">
          <mxGeometry relative="1" as="geometry" />
        </mxCell>
        <mxCell id="oKJhpVfzUX_Z_Kkq6TDM-90" style="edgeStyle=orthogonalEdgeStyle;rounded=0;orthogonalLoop=1;jettySize=auto;html=1;exitX=0;exitY=0.5;exitDx=0;exitDy=0;entryX=1;entryY=0.5;entryDx=0;entryDy=0;" edge="1" parent="1" source="YxDH78quZ-EtWejgUxgi-101" target="oKJhpVfzUX_Z_Kkq6TDM-76">
          <mxGeometry relative="1" as="geometry" />
        </mxCell>
        <mxCell id="oKJhpVfzUX_Z_Kkq6TDM-91" style="edgeStyle=orthogonalEdgeStyle;rounded=0;orthogonalLoop=1;jettySize=auto;html=1;exitX=0;exitY=0.5;exitDx=0;exitDy=0;entryX=1;entryY=0.5;entryDx=0;entryDy=0;" edge="1" parent="1" source="YxDH78quZ-EtWejgUxgi-101" target="oKJhpVfzUX_Z_Kkq6TDM-37">
          <mxGeometry relative="1" as="geometry" />
        </mxCell>
        <mxCell id="oKJhpVfzUX_Z_Kkq6TDM-93" value="&lt;font style=&quot;font-size: 17px;&quot;&gt;1&lt;/font&gt;" style="text;html=1;align=center;verticalAlign=middle;resizable=0;points=[];autosize=1;strokeColor=none;fillColor=none;" vertex="1" parent="1">
          <mxGeometry x="-374" y="140" width="27" height="32" as="geometry" />
        </mxCell>
        <mxCell id="oKJhpVfzUX_Z_Kkq6TDM-94" value="&lt;font style=&quot;font-size: 17px;&quot;&gt;1&lt;/font&gt;" style="text;html=1;align=center;verticalAlign=middle;resizable=0;points=[];autosize=1;strokeColor=none;fillColor=none;" vertex="1" parent="1">
          <mxGeometry x="82" y="146" width="27" height="32" as="geometry" />
        </mxCell>
        <mxCell id="oKJhpVfzUX_Z_Kkq6TDM-95" value="&lt;font style=&quot;font-size: 17px;&quot;&gt;1&lt;/font&gt;" style="text;html=1;align=center;verticalAlign=middle;resizable=0;points=[];autosize=1;strokeColor=none;fillColor=none;" vertex="1" parent="1">
          <mxGeometry x="-687" y="132" width="27" height="32" as="geometry" />
        </mxCell>
        <mxCell id="oKJhpVfzUX_Z_Kkq6TDM-96" value="&lt;font style=&quot;font-size: 17px;&quot;&gt;1&lt;/font&gt;" style="text;html=1;align=center;verticalAlign=middle;resizable=0;points=[];autosize=1;strokeColor=none;fillColor=none;" vertex="1" parent="1">
          <mxGeometry x="-705" y="-248" width="27" height="32" as="geometry" />
        </mxCell>
        <mxCell id="oKJhpVfzUX_Z_Kkq6TDM-97" value="&lt;font style=&quot;font-size: 17px;&quot;&gt;1&lt;/font&gt;" style="text;html=1;align=center;verticalAlign=middle;resizable=0;points=[];autosize=1;strokeColor=none;fillColor=none;" vertex="1" parent="1">
          <mxGeometry x="-202" y="514" width="27" height="32" as="geometry" />
        </mxCell>
        <mxCell id="oKJhpVfzUX_Z_Kkq6TDM-98" value="&lt;font style=&quot;font-size: 17px;&quot;&gt;1&lt;/font&gt;" style="text;html=1;align=center;verticalAlign=middle;resizable=0;points=[];autosize=1;strokeColor=none;fillColor=none;" vertex="1" parent="1">
          <mxGeometry x="164" y="56" width="27" height="32" as="geometry" />
        </mxCell>
        <mxCell id="oKJhpVfzUX_Z_Kkq6TDM-99" value="&lt;font style=&quot;font-size: 17px;&quot;&gt;n&lt;/font&gt;" style="text;html=1;align=center;verticalAlign=middle;resizable=0;points=[];autosize=1;strokeColor=none;fillColor=none;" vertex="1" parent="1">
          <mxGeometry x="663" y="-103" width="27" height="32" as="geometry" />
        </mxCell>
        <mxCell id="oKJhpVfzUX_Z_Kkq6TDM-103" value="Done" style="text;html=1;align=center;verticalAlign=middle;resizable=0;points=[];autosize=1;strokeColor=none;fillColor=none;" vertex="1" parent="1">
          <mxGeometry x="-184" y="-318" width="47" height="26" as="geometry" />
        </mxCell>
        <mxCell id="oKJhpVfzUX_Z_Kkq6TDM-104" value="Done" style="text;html=1;align=center;verticalAlign=middle;resizable=0;points=[];autosize=1;strokeColor=none;fillColor=none;" vertex="1" parent="1">
          <mxGeometry x="520" y="-430" width="47" height="26" as="geometry" />
        </mxCell>
        <mxCell id="oKJhpVfzUX_Z_Kkq6TDM-105" value="Done" style="text;html=1;align=center;verticalAlign=middle;resizable=0;points=[];autosize=1;strokeColor=none;fillColor=none;" vertex="1" parent="1">
          <mxGeometry y="-135" width="47" height="26" as="geometry" />
        </mxCell>
        <mxCell id="oKJhpVfzUX_Z_Kkq6TDM-106" value="Done" style="text;html=1;align=center;verticalAlign=middle;resizable=0;points=[];autosize=1;strokeColor=none;fillColor=none;" vertex="1" parent="1">
          <mxGeometry x="12" y="381" width="47" height="26" as="geometry" />
        </mxCell>
        <mxCell id="oKJhpVfzUX_Z_Kkq6TDM-107" value="Done" style="text;html=1;align=center;verticalAlign=middle;resizable=0;points=[];autosize=1;strokeColor=none;fillColor=none;" vertex="1" parent="1">
          <mxGeometry x="-563" y="77" width="47" height="26" as="geometry" />
        </mxCell>
        <mxCell id="oKJhpVfzUX_Z_Kkq6TDM-108" value="1" style="text;html=1;align=center;verticalAlign=middle;resizable=0;points=[];autosize=1;strokeColor=none;fillColor=none;" vertex="1" parent="1">
          <mxGeometry x="-346" y="450" width="25" height="26" as="geometry" />
        </mxCell>
      </root>
    </mxGraphModel>
  </diagram>
</mxfile>
